<svg width="21" height="21" viewBox="0 0 21 21" fill="none" xmlns="http://www.w3.org/2000/svg">
<path d="M10.5 1.6333L11.1508 0.874044C10.7763 0.553053 10.2237 0.553053 9.84918 0.874044L10.5 1.6333ZM1.6333 9.2333L0.982509 8.47404L0.633301 8.77337V9.2333H1.6333ZM7.96663 19.3666V20.3666C8.51892 20.3666 8.96663 19.9189 8.96663 19.3666H7.96663ZM13.0333 19.3666H12.0333C12.0333 19.9189 12.481 20.3666 13.0333 20.3666V19.3666ZM19.3666 9.2333H20.3666V8.77337L20.0174 8.47404L19.3666 9.2333ZM2.89997 20.3666H7.96663V18.3666H2.89997V20.3666ZM20.0174 8.47404L11.1508 0.874044L9.84918 2.39256L18.7158 9.99256L20.0174 8.47404ZM9.84918 0.874044L0.982509 8.47404L2.28409 9.99256L11.1508 2.39256L9.84918 0.874044ZM8.96663 19.3666V15.5666H6.96663V19.3666H8.96663ZM12.0333 15.5666V19.3666H14.0333V15.5666H12.0333ZM13.0333 20.3666H18.1V18.3666H13.0333V20.3666ZM20.3666 18.1V9.2333H18.3666V18.1H20.3666ZM0.633301 9.2333V18.1H2.6333V9.2333H0.633301ZM10.5 14.0333C11.3468 14.0333 12.0333 14.7198 12.0333 15.5666H14.0333C14.0333 13.6152 12.4514 12.0333 10.5 12.0333V14.0333ZM10.5 12.0333C8.54856 12.0333 6.96663 13.6152 6.96663 15.5666H8.96663C8.96663 14.7198 9.65313 14.0333 10.5 14.0333V12.0333ZM18.1 20.3666C19.3518 20.3666 20.3666 19.3518 20.3666 18.1H18.3666C18.3666 18.2472 18.2472 18.3666 18.1 18.3666V20.3666ZM2.89997 18.3666C2.75269 18.3666 2.6333 18.2472 2.6333 18.1H0.633301C0.633301 19.3518 1.64812 20.3666 2.89997 20.3666V18.3666Z" fill="white"/>
</svg>
