<svg width="131" height="130" viewBox="0 0 131 130" fill="none" xmlns="http://www.w3.org/2000/svg">
<path d="M65.7906 108.203C68.7785 108.203 71.2007 105.78 71.2007 102.792C71.2007 99.8045 68.7785 97.3823 65.7906 97.3823C62.8026 97.3823 60.3805 99.8045 60.3805 102.792C60.3805 105.78 62.8026 108.203 65.7906 108.203Z" fill="#C7C7C7"/>
<path d="M68.1711 59.5111L57.8919 49.286L44.583 36.0853L36.1973 27.6996L26.3509 17.7991C25.8464 17.2946 25.2476 16.8945 24.5885 16.6215C23.9294 16.3485 23.223 16.208 22.5097 16.208C21.7963 16.208 21.0899 16.3485 20.4308 16.6215C19.7718 16.8945 19.1729 17.2946 18.6685 17.7991C17.6497 18.8178 17.0774 20.1995 17.0774 21.6403C17.0774 23.081 17.6497 24.4627 18.6685 25.4815L26.1345 32.8933L34.0332 40.7921L46.0978 52.9108L54.4835 61.2424L69.3072 76.0661L84.4015 91.2144L105.23 112.043C105.733 112.55 106.332 112.953 106.991 113.228C107.65 113.502 108.357 113.644 109.072 113.644C109.786 113.644 110.493 113.502 111.152 113.228C111.812 112.953 112.41 112.55 112.913 112.043C113.42 111.54 113.822 110.942 114.097 110.283C114.372 109.624 114.513 108.916 114.513 108.202C114.513 107.488 114.372 106.781 114.097 106.122C113.822 105.462 113.42 104.864 112.913 104.361L68.1711 59.5111ZM118.377 42.902C104.286 29.237 85.4195 21.6088 65.7906 21.6403C57.6239 21.6624 49.5137 22.9958 41.7697 25.5897L50.5341 34.3541C61.1477 31.7021 72.2622 31.8007 82.827 34.6407C93.3918 37.4807 103.058 42.9682 110.911 50.5844C111.914 51.5511 113.251 52.0937 114.644 52.0993C115.373 52.0965 116.094 51.9465 116.763 51.6583C117.432 51.3701 118.036 50.9496 118.539 50.4221C119.493 49.3924 120.009 48.0324 119.979 46.6293C119.949 45.2261 119.374 43.8896 118.377 42.902ZM21.5358 35.9771C18.6005 38.0882 15.8165 40.4021 13.2043 42.902C12.2912 43.9173 11.7959 45.2402 11.8175 46.6054C11.8391 47.9707 12.3762 49.2772 13.3209 50.263C14.2656 51.2488 15.5481 51.841 16.9112 51.9206C18.2743 52.0003 19.6171 51.5616 20.6702 50.6926C23.3683 48.143 26.2626 45.8095 29.3264 43.7136L21.5358 35.9771ZM92.8413 71.0888C93.3423 71.6 93.9398 72.0066 94.5992 72.2853C95.2585 72.5639 95.9666 72.7088 96.6824 72.7118C97.7397 72.7078 98.7726 72.3941 99.6535 71.8095C100.534 71.2248 101.225 70.3949 101.639 69.4222C102.053 68.4496 102.174 67.3768 101.985 66.3365C101.797 65.2962 101.307 64.334 100.578 63.5687C96.0654 58.8931 90.6628 55.1679 84.6884 52.6128C78.7139 50.0576 72.2885 48.7241 65.7906 48.6909H64.925L77.6388 61.4047C83.4118 63.3621 88.627 66.6843 92.8413 71.0888ZM41.0664 55.5076C37.2859 57.7096 33.8269 60.4221 30.7872 63.5687C29.7899 64.6233 29.2525 66.0309 29.2931 67.4818C29.3337 68.9326 29.9489 70.308 31.0036 71.3052C32.0582 72.3024 33.4657 72.8398 34.9166 72.7993C36.3675 72.7587 37.7428 72.1434 38.74 71.0888C41.8919 67.9553 45.55 65.3763 49.5603 63.4605L41.0664 55.5076ZM47.0175 83.3157C45.9844 84.3129 45.3898 85.6796 45.3644 87.1153C45.3519 87.8262 45.4794 88.5325 45.7399 89.1941C46.0003 89.8557 46.3885 90.4594 46.8823 90.971C47.376 91.4825 47.9657 91.8918 48.6177 92.1754C49.2696 92.4591 49.9711 92.6115 50.6819 92.6241C52.1176 92.6494 53.5045 92.1035 54.5376 91.1062C57.3228 88.5375 60.9049 87.0018 64.6858 86.7557C68.4667 86.5095 72.2177 87.5677 75.3125 89.7537L61.679 76.1202C56.1672 76.9508 51.0466 79.4639 47.0175 83.3157Z" fill="#C7C7C7"/>
</svg>
