<svg width="21" height="21" viewBox="0 0 21 21" fill="none" xmlns="http://www.w3.org/2000/svg">
<g clip-path="url(#clip0_219:143)">
<path d="M10.0617 0C4.51371 0 0 4.51371 0 10.0618C0 15.6099 4.51371 20.1235 10.0617 20.1235C15.6098 20.1235 20.1235 15.6098 20.1235 10.0617C20.1235 4.51365 15.6098 0 10.0617 0ZM10.0617 18.4306C5.44714 18.4306 1.69285 14.6764 1.69285 10.0618C1.69285 5.4472 5.44714 1.69285 10.0617 1.69285C14.6763 1.69285 18.4306 5.44714 18.4306 10.0618C18.4306 14.6765 14.6763 18.4306 10.0617 18.4306Z" fill="white"/>
<path d="M10.0618 3.77783C8.05409 3.77783 6.42065 5.41126 6.42065 7.41899C6.42065 7.88644 6.79963 8.26541 7.26708 8.26541C7.73453 8.26541 8.11351 7.88644 8.11351 7.41899C8.11351 6.3447 8.98752 5.47068 10.0618 5.47068C11.1361 5.47068 12.0101 6.3447 12.0101 7.41899C12.0101 8.49327 11.1361 9.36729 10.0618 9.36729C9.59436 9.36729 9.21538 9.74626 9.21538 10.2137V12.1275C9.21538 12.5949 9.59436 12.9739 10.0618 12.9739C10.5293 12.9739 10.9082 12.5949 10.9082 12.1275V10.9608C12.5092 10.5783 13.703 9.13537 13.703 7.41893C13.703 5.41126 12.0695 3.77783 10.0618 3.77783Z" fill="white"/>
<path d="M10.0618 16.1892C10.7162 16.1892 11.2467 15.6587 11.2467 15.0043C11.2467 14.3499 10.7162 13.8193 10.0618 13.8193C9.40735 13.8193 8.87683 14.3499 8.87683 15.0043C8.87683 15.6587 9.40735 16.1892 10.0618 16.1892Z" fill="white"/>
</g>
<defs>
<clipPath id="clip0_219:143">
<rect width="20.1235" height="20.1235" fill="white"/>
</clipPath>
</defs>
</svg>
