<svg width="19" height="19" viewBox="0 0 19 19" fill="none" xmlns="http://www.w3.org/2000/svg">
<path d="M9.49998 17.1001L9.05215 17.548C9.17092 17.6668 9.33201 17.7335 9.49998 17.7335C9.66795 17.7335 9.82904 17.6668 9.94782 17.548L9.49998 17.1001ZM1.94499 9.54516L1.49716 9.99299H1.49716L1.94499 9.54516ZM8.27833 3.21182L7.83049 3.65966V3.65966L8.27833 3.21182ZM9.49998 4.43348L9.05215 4.88131C9.29948 5.12865 9.70049 5.12865 9.94782 4.88131L9.49998 4.43348ZM10.7216 3.21182L10.2738 2.76399V2.76399L10.7216 3.21182ZM9.94782 16.6523L2.39283 9.09732L1.49716 9.99299L9.05215 17.548L9.94782 16.6523ZM16.6071 9.09732L9.05215 16.6523L9.94782 17.548L17.5028 9.99299L16.6071 9.09732ZM7.83049 3.65966L9.05215 4.88131L9.94782 3.98565L8.72616 2.76399L7.83049 3.65966ZM9.94782 4.88131L11.1695 3.65966L10.2738 2.76399L9.05215 3.98565L9.94782 4.88131ZM13.8883 1.26681C12.5326 1.26681 11.2324 1.80536 10.2738 2.76399L11.1695 3.65966C11.8906 2.93858 12.8685 2.53348 13.8883 2.53348V1.26681ZM17.7333 6.37849C17.7333 7.39825 17.3282 8.37624 16.6071 9.09732L17.5028 9.99299C18.4614 9.03437 19 7.73419 19 6.37849H17.7333ZM19 6.37849C19 3.55539 16.7114 1.26681 13.8883 1.26681V2.53348C16.0118 2.53348 17.7333 4.25495 17.7333 6.37849H19ZM5.11166 2.53348C6.13142 2.53348 7.10941 2.93858 7.83049 3.65966L8.72616 2.76399C7.76753 1.80536 6.46736 1.26681 5.11166 1.26681V2.53348ZM1.26665 6.37849C1.26665 4.25495 2.98812 2.53348 5.11166 2.53348V1.26681C2.28856 1.26681 -1.72853e-05 3.55539 -1.72853e-05 6.37849H1.26665ZM2.39283 9.09732C1.67175 8.37624 1.26665 7.39825 1.26665 6.37849H-1.72853e-05C-1.72853e-05 7.73419 0.538531 9.03436 1.49716 9.99299L2.39283 9.09732Z" fill="#ADADAF"/>
</svg>
