<svg width="32" height="32" viewBox="0 0 32 32" fill="none" xmlns="http://www.w3.org/2000/svg">
<path d="M28.813 25.3845C29.5325 24.836 30 23.9725 30 23C30 21.5165 28.9165 20.2845 27.5 20.045V19.5C27.5 18.1215 26.3785 17 25 17H16.5V15.178C16.77 15.3835 17.0945 15.5 17.4395 15.5C18.2815 15.5 18.965 14.829 18.9945 13.9945C19.8105 13.9655 20.4655 13.3105 20.4945 12.4945C21.3105 12.4655 21.9655 11.8105 21.9945 10.9945C22.829 10.965 23.5 10.281 23.5 9.4395C23.5 9.0225 23.3375 8.6305 23.043 8.336L22.939 8.232C23.626 7.389 24 6.345 24 5.2425C24 2.6275 21.8725 0.5 19.2575 0.5C18.034 0.5 16.8845 0.964 16 1.802C15.1155 0.964 13.966 0.5 12.7425 0.5C10.1275 0.5 8 2.6275 8 5.2425C8 6.471 8.4675 7.6255 9.3125 8.5115C9.113 8.7795 9 9.0995 9 9.4395C9 10.2815 9.671 10.965 10.5055 10.9945C10.5345 11.8105 11.1895 12.4655 12.0055 12.4945C12.0345 13.3105 12.6895 13.9655 13.5055 13.9945C13.535 14.829 14.219 15.5 15.0605 15.5C15.2125 15.5 15.3585 15.4715 15.5 15.43V17H7C5.6215 17 4.5 18.1215 4.5 19.5V20.045C3.0835 20.2845 2 21.5165 2 23C2 23.9725 2.4675 24.836 3.187 25.3845C1.607 26.0835 0.5 27.664 0.5 29.5V31.5H9.5V29.5C9.5 27.664 8.393 26.0835 6.813 25.3845C7.5325 24.836 8 23.9725 8 23C8 21.5165 6.9165 20.2845 5.5 20.045V19.5C5.5 18.673 6.173 18 7 18H15.5V20.045C14.0835 20.284 13 21.516 13 23C13 23.9725 13.4675 24.836 14.187 25.3845C12.607 26.0835 11.5 27.664 11.5 29.5V31.5H20.5V29.5C20.5 27.664 19.393 26.0835 17.813 25.3845C18.5325 24.836 19 23.9725 19 23C19 21.5165 17.9165 20.2845 16.5 20.045V18H25C25.827 18 26.5 18.673 26.5 19.5V20.045C25.0835 20.284 24 21.516 24 23C24 23.9725 24.4675 24.836 25.187 25.3845C23.607 26.0835 22.5 27.664 22.5 29.5V31.5H31.5V29.5C31.5 27.664 30.393 26.0835 28.813 25.3845ZM19.2575 1.5C21.321 1.5 23 3.179 23 5.2425C23 6.077 22.7255 6.8675 22.225 7.5175L19.926 5.2185C20.075 5.1065 20.2195 4.9875 20.354 4.8535L19.647 4.1465C19.096 4.697 18.3645 5 17.5855 5H16.793L15.9395 5.8535C15.845 5.948 15.719 6 15.5855 6H13.707C13.593 6 13.5 5.907 13.5 5.793C13.5 5.7385 13.522 5.685 13.5605 5.6465L16.611 2.596C17.318 1.8895 18.2575 1.5 19.2575 1.5ZM12.7425 1.5C13.6965 1.5 14.5935 1.858 15.288 2.5045L12.853 4.9395C12.6255 5.167 12.5 5.4705 12.5 5.793C12.5 6.4585 13.0415 7 13.707 7H15.5855C15.986 7 16.363 6.844 16.6465 6.5605L17.207 6H17.5855C18.085 6 18.569 5.9045 19.02 5.727L22.336 9.043C22.4415 9.149 22.5 9.2895 22.5 9.4395C22.5 9.7485 22.2485 10 21.9395 10C21.7895 10 21.649 9.9415 21.543 9.836L20.3535 8.6465L19.6465 9.3535L20.836 10.543C20.9415 10.649 21 10.7895 21 10.9395C21 11.2485 20.7485 11.5 20.4395 11.5C20.2895 11.5 20.149 11.4415 20.043 11.336L18.8535 10.1465L18.1465 10.8535L19.336 12.043C19.4415 12.149 19.5 12.2895 19.5 12.4395C19.5 12.7485 19.2485 13 18.9395 13C18.7895 13 18.649 12.9415 18.543 12.836L17.3535 11.6465L16.6465 12.3535L17.836 13.543C17.9415 13.649 18 13.7895 18 13.9395C18 14.2485 17.7485 14.5 17.4395 14.5C17.2895 14.5 17.149 14.4415 17.043 14.336L16.876 14.169C16.9565 13.979 17 13.7735 17 13.5605C17 12.7185 16.329 12.035 15.4945 12.0055C15.4655 11.1895 14.8105 10.5345 13.9945 10.5055C13.9655 9.6895 13.3105 9.0345 12.4945 9.0055C12.465 8.171 11.781 7.5 10.9395 7.5C10.603 7.5 10.286 7.61 10.0205 7.8055C9.3635 7.1085 9 6.2045 9 5.2425C9 3.179 10.679 1.5 12.7425 1.5ZM10 9.4395C10 9.2895 10.0585 9.149 10.164 9.043L10.543 8.664C10.649 8.5585 10.7895 8.5 10.9395 8.5C11.2485 8.5 11.5 8.7515 11.5 9.0605C11.5 9.2105 11.4415 9.351 11.336 9.457L10.957 9.836C10.851 9.9415 10.7105 10 10.5605 10C10.2515 10 10 9.7485 10 9.4395ZM11.5 10.9395C11.5 10.7895 11.5585 10.649 11.664 10.543L12.043 10.164C12.149 10.0585 12.2895 10 12.4395 10C12.7485 10 13 10.2515 13 10.5605C13 10.7105 12.9415 10.851 12.836 10.957L12.457 11.336C12.351 11.4415 12.2105 11.5 12.0605 11.5C11.7515 11.5 11.5 11.2485 11.5 10.9395ZM13 12.4395C13 12.2895 13.0585 12.149 13.164 12.043L13.543 11.664C13.649 11.5585 13.7895 11.5 13.9395 11.5C14.2485 11.5 14.5 11.7515 14.5 12.0605C14.5 12.2105 14.4415 12.351 14.336 12.457L13.957 12.836C13.851 12.9415 13.7105 13 13.5605 13C13.2515 13 13 12.7485 13 12.4395ZM15.0605 14.5C14.7515 14.5 14.5 14.2485 14.5 13.9395C14.5 13.7895 14.5585 13.649 14.664 13.543L15.043 13.164C15.149 13.0585 15.2895 13 15.4395 13C15.7485 13 16 13.2515 16 13.5605C16 13.7105 15.9415 13.851 15.836 13.957L15.457 14.336C15.351 14.4415 15.2105 14.5 15.0605 14.5ZM8.5 29.5V30.5H7.5V28.5H6.5V30.5H3.5V28.5H2.5V30.5H1.5V29.5C1.5 27.57 3.07 26 5 26C6.93 26 8.5 27.57 8.5 29.5ZM7 23C7 24.103 6.103 25 5 25C3.897 25 3 24.103 3 23C3 21.897 3.897 21 5 21C6.103 21 7 21.897 7 23ZM19.5 29.5V30.5H18.5V28.5H17.5V30.5H14.5V28.5H13.5V30.5H12.5V29.5C12.5 27.57 14.07 26 16 26C17.93 26 19.5 27.57 19.5 29.5ZM18 23C18 24.103 17.103 25 16 25C14.897 25 14 24.103 14 23C14 21.897 14.897 21 16 21C17.103 21 18 21.897 18 23ZM25 23C25 21.897 25.897 21 27 21C28.103 21 29 21.897 29 23C29 24.103 28.103 25 27 25C25.897 25 25 24.103 25 23ZM30.5 30.5H29.5V28.5H28.5V30.5H25.5V28.5H24.5V30.5H23.5V29.5C23.5 27.57 25.07 26 27 26C28.93 26 30.5 27.57 30.5 29.5V30.5Z" fill="white"/>
<path d="M19 19H20V20H19V19Z" fill="white"/>
<path d="M21 19H22V20H21V19Z" fill="white"/>
<path d="M23 19H24V20H23V19Z" fill="white"/>
<path d="M8 19H9V20H8V19Z" fill="white"/>
<path d="M10 19H11V20H10V19Z" fill="white"/>
<path d="M12 19H13V20H12V19Z" fill="white"/>
</svg>
