<svg width="20" height="20" viewBox="0 0 20 20" fill="none" xmlns="http://www.w3.org/2000/svg">
<g clip-path="url(#clip0_144:202)">
<path d="M16.8365 3.67735C16.4291 3.26973 15.9453 2.94638 15.4129 2.72576C14.8805 2.50515 14.3098 2.3916 13.7335 2.3916C13.1571 2.3916 12.5865 2.50515 12.054 2.72576C11.5216 2.94638 11.0379 3.26973 10.6304 3.67735L9.78487 4.5229L8.93931 3.67735C8.11634 2.85437 7.00015 2.39203 5.83628 2.39203C4.67242 2.39203 3.55623 2.85437 2.73325 3.67735C1.91028 4.50032 1.44794 5.61651 1.44794 6.78037C1.44794 7.94424 1.91028 9.06043 2.73325 9.8834L3.57881 10.729L9.78487 16.935L15.9909 10.729L16.8365 9.8834C17.2441 9.47598 17.5675 8.99223 17.7881 8.4598C18.0087 7.92738 18.1222 7.3567 18.1222 6.78037C18.1222 6.20405 18.0087 5.63337 17.7881 5.10095C17.5675 4.56852 17.2441 4.08477 16.8365 3.67735V3.67735Z" stroke="#FA5075" stroke-width="1.91447" stroke-linecap="round" stroke-linejoin="round"/>
</g>
<defs>
<clipPath id="clip0_144:202">
<rect width="19.1447" height="19.1447" fill="white" transform="translate(0.212524)"/>
</clipPath>
</defs>
</svg>
