<svg width="120" height="120" viewBox="0 0 120 120" fill="none" xmlns="http://www.w3.org/2000/svg">
<g clip-path="url(#clip0_291:243)">
<path d="M96.9865 108.493V96.5194C96.9865 82.4168 86.0895 73.9823 75.6164 65.7534C74.1698 64.6193 72.3286 62.4656 72.3286 59.178C72.3286 55.8905 73.9873 52.6849 75.6164 51.3138C85.8063 42.7397 96.9865 34.6502 96.9865 20.5479V11.5069H105.206V0H14.7945V11.5069H23.0135V20.5481C23.0135 34.6507 34.1932 42.7399 44.3836 51.3141C46.0127 52.6852 47.6714 55.8905 47.6714 59.1783C47.6714 62.4661 45.8302 64.6193 44.3836 65.7537C33.9108 73.9828 23.0135 82.4173 23.0135 96.5196V108.493H14.7945V120H105.205V108.493H96.9865ZM39.2433 31.2328C36.2135 27.8037 34.5206 24.503 34.5206 20.5479V11.5069H85.4794V20.5481C85.4794 24.503 83.786 27.8041 80.7567 31.233H39.2433V31.2328ZM85.4794 105.286L66.1266 97.733C62.7567 96.4179 57.2449 96.4179 53.8751 97.733L34.5206 105.287V96.5201C34.5206 88.5408 40.8626 83.1525 51.2121 75.022L51.4866 74.8069C55.4152 71.7262 57.9633 67.436 58.8281 62.7082C59.6023 62.8807 60.398 62.8807 61.1721 62.7082C62.0334 67.4344 64.5846 71.7248 68.5083 74.802L68.7877 75.022C79.1372 83.152 85.4791 88.5389 85.4791 96.5198V105.286H85.4794Z" fill="#C7C7C7"/>
</g>
<defs>
<clipPath id="clip0_291:243">
<rect width="120" height="120" fill="white"/>
</clipPath>
</defs>
</svg>
