<svg width="32" height="32" viewBox="0 0 32 32" fill="none" xmlns="http://www.w3.org/2000/svg">
<path d="M24.5615 23.644L19.432 21.5455C18.866 21.314 18.5 20.769 18.5 20.157V19.798C20.0385 18.735 21.2135 17.235 21.8795 15.5H22C23.3785 15.5 24.5 14.3785 24.5 13V9C24.5 4.313 20.687 0.5 16 0.5H7.5V1C7.5 1.517 7.567 2.0175 7.6815 2.5H5.9095L6.0065 3.0825C6.2475 4.5275 6.8795 5.815 7.779 6.8535C7.5975 7.5515 7.5 8.271 7.5 9V13C7.5 14.3785 8.6215 15.5 10 15.5H10.1205C10.7865 17.2355 11.9615 18.735 13.5 19.798V20.157C13.5 20.769 13.134 21.3135 12.568 21.545L7.4385 23.6435C4.4385 24.8715 2.5 27.759 2.5 31V31.5H29.5V31C29.5 27.759 27.5615 24.8715 24.5615 23.644ZM21.8735 25.701L17.7345 27.253L18.807 28.8615L16.3485 30.5H16.074L16.4505 29.7165C16.5585 29.4925 18.865 24.6865 19.6335 22.7085L21.0715 23.297L21.8735 25.701ZM10.1265 25.701L10.928 23.297L12.3665 22.7085C13.1335 24.6785 15.4415 29.492 15.549 29.7165L15.9255 30.5H15.6515L13.1935 28.8615L14.266 27.253L10.1265 25.701ZM13.998 24H18.0025C17.353 25.466 16.51 27.2615 16 28.3375C15.4905 27.261 14.6475 25.465 13.998 24ZM22.207 14.479C22.3965 13.738 22.5 12.9665 22.5 12.1755V11.592C23.0805 11.799 23.5 12.349 23.5 13C23.5 13.756 22.9355 14.377 22.207 14.479ZM8.0015 3.5C8.983 5.8465 11.3015 7.5 14 7.5H17.5V6.5H14C11.1355 6.5 8.776 4.2995 8.5225 1.5H16C20.1355 1.5 23.5 4.8645 23.5 9V11.013C23.196 10.783 22.843 10.618 22.454 10.546C22.2395 9.384 21.223 8.5 20 8.5H13.583C10.504 8.5 7.873 6.4305 7.1165 3.5H8.0015ZM8.621 7.679C8.9 7.915 9.1895 8.139 9.5 8.333V10.5505C9.1285 10.6265 8.792 10.7915 8.5 11.0125V9C8.5 8.5545 8.5435 8.1135 8.621 7.679ZM8.5 13C8.5 12.349 8.9195 11.799 9.5 11.592V12.1755C9.5 12.9665 9.6035 13.738 9.793 14.479C9.0645 14.377 8.5 13.756 8.5 13ZM10.5 12.1755V8.8605C11.4465 9.273 12.49 9.5 13.583 9.5H20C20.827 9.5 21.5 10.173 21.5 11V12.1755C21.5 15.687 19.297 18.799 16 19.971C12.703 18.799 10.5 15.6875 10.5 12.1755ZM14.482 20.398C14.914 20.623 15.368 20.8165 15.8415 20.974L16 21.027L16.158 20.9745C16.6315 20.8165 17.0855 20.6235 17.5175 20.3985C17.5935 21.1935 18.036 21.899 18.7175 22.3045C18.641 22.5045 18.546 22.738 18.4355 23.0005H13.564C13.453 22.738 13.358 22.504 13.2815 22.3045C13.9635 21.8985 14.406 21.193 14.482 20.398ZM7.817 24.57L9.7075 23.7965L8.8735 26.299L12.7345 27.747L11.807 29.1385L13.8485 30.5H8.5V27.5H7.5V30.5H3.5175C3.704 27.8725 5.35 25.579 7.817 24.57ZM24.5 30.5V27.5H23.5V30.5H18.1515L20.1935 29.1385L19.266 27.747L23.127 26.299L22.293 23.7965L24.1835 24.57C26.6505 25.5795 28.2965 27.8725 28.483 30.5H24.5Z" fill="#5E1500"/>
<path d="M19 12C19.2761 12 19.5 11.7761 19.5 11.5C19.5 11.2239 19.2761 11 19 11C18.7239 11 18.5 11.2239 18.5 11.5C18.5 11.7761 18.7239 12 19 12Z" fill="#5E1500"/>
<path d="M13 12C13.2761 12 13.5 11.7761 13.5 11.5C13.5 11.2239 13.2761 11 13 11C12.7239 11 12.5 11.2239 12.5 11.5C12.5 11.7761 12.7239 12 13 12Z" fill="#5E1500"/>
<path d="M18 16H17C17 16.5515 16.5515 17 16 17C15.4485 17 15 16.5515 15 16H14C14 17.103 14.897 18 16 18C17.103 18 18 17.103 18 16Z" fill="#5E1500"/>
</svg>
