<svg width="53" height="53" viewBox="0 0 53 53" fill="none" xmlns="http://www.w3.org/2000/svg">
<g filter="url(#filter0_d_198:118)">
<path d="M26.9122 11.1525C26.675 10.9492 26.325 10.9492 26.0878 11.1525L17 18.942V28.1C17 29.1493 17.8507 30 18.9 30H23.9667C24.3164 30 24.6 29.7164 24.6 29.3667V25.5667C24.6 24.5173 25.4507 23.6667 26.5 23.6667C27.5493 23.6667 28.4 24.5173 28.4 25.5667V29.3667C28.4 29.7164 28.6836 30 29.0333 30H34.1C35.1493 30 36 29.1493 36 28.1V18.942L26.9122 11.1525Z" fill="url(#paint0_linear_198:118)"/>
</g>
<defs>
<filter id="filter0_d_198:118" x="0" y="0" width="53" height="53" filterUnits="userSpaceOnUse" color-interpolation-filters="sRGB">
<feFlood flood-opacity="0" result="BackgroundImageFix"/>
<feColorMatrix in="SourceAlpha" type="matrix" values="0 0 0 0 0 0 0 0 0 0 0 0 0 0 0 0 0 0 127 0" result="hardAlpha"/>
<feOffset dy="6"/>
<feGaussianBlur stdDeviation="8.5"/>
<feColorMatrix type="matrix" values="0 0 0 0 0.841667 0 0 0 0 0.219258 0 0 0 0 0 0 0 0 0.3 0"/>
<feBlend mode="normal" in2="BackgroundImageFix" result="effect1_dropShadow_198:118"/>
<feBlend mode="normal" in="SourceGraphic" in2="effect1_dropShadow_198:118" result="shape"/>
</filter>
<linearGradient id="paint0_linear_198:118" x1="36" y1="11" x2="31.2973" y2="33.0493" gradientUnits="userSpaceOnUse">
<stop stop-color="#BC6D55"/>
<stop offset="1" stop-color="#854836"/>
</linearGradient>
</defs>
</svg>
