<svg width="19" height="19" viewBox="0 0 19 19" fill="none" xmlns="http://www.w3.org/2000/svg">
<g clip-path="url(#clip0_237:1762)">
<path d="M16.5815 3.86201C16.5812 3.85612 16.5805 3.85023 16.5795 3.84438C16.5567 3.81175 16.5286 3.78368 16.5051 3.75171C16.3346 3.51934 16.154 3.2957 15.9634 3.08073C15.9112 3.02199 15.859 2.9639 15.8055 2.90646C15.6092 2.69631 15.4034 2.49591 15.188 2.30534C15.1482 2.27008 15.111 2.23356 15.0712 2.19895C14.5404 1.7442 13.9591 1.35174 13.339 1.02935C13.3141 1.01631 13.2881 1.00522 13.2626 0.99214C12.9864 0.851787 12.7032 0.725622 12.4141 0.614219C12.3488 0.590737 12.2894 0.568518 12.2274 0.548937C11.9703 0.456273 11.7092 0.375121 11.4442 0.305479C11.3659 0.284598 11.2875 0.263067 11.2079 0.244787C10.9468 0.184094 10.6858 0.137743 10.4188 0.0998823C10.3379 0.0881416 10.2583 0.0724618 10.1766 0.0626715C9.48906 -0.0208905 8.79391 -0.0208905 8.10629 0.0626715C8.02472 0.0724618 7.9451 0.0881416 7.86413 0.0998823C7.59719 0.137743 7.33351 0.184094 7.07502 0.244787C6.9954 0.263067 6.91707 0.284598 6.83875 0.305479C6.572 0.375082 6.31095 0.456235 6.05552 0.548937C5.99024 0.571118 5.93085 0.593338 5.86886 0.614219C5.57978 0.725622 5.29654 0.851749 5.02035 0.99214C4.99488 1.00518 4.9688 1.01627 4.94398 1.02935C4.32172 1.3514 3.73854 1.74382 3.20585 2.19895C3.16604 2.23352 3.12883 2.27008 3.08902 2.30534C2.87145 2.49679 2.66562 2.69719 2.47158 2.90646C2.41807 2.9639 2.36583 3.02199 2.31363 3.08073C2.1226 3.29524 1.94202 3.51889 1.77191 3.75167C1.74843 3.78365 1.72036 3.81172 1.69749 3.84434C1.69451 3.85004 1.69187 3.85593 1.68965 3.86197C-0.561589 7.01694 -0.561589 11.2532 1.68965 14.4081C1.69187 14.4141 1.69447 14.42 1.69749 14.4257C1.72032 14.4583 1.74839 14.4864 1.77191 14.5184C1.94206 14.7508 2.1226 14.9744 2.31363 15.1894C2.36583 15.2481 2.41807 15.3062 2.47158 15.3636C2.66826 15.5738 2.87405 15.7742 3.08902 15.9648C3.12883 16 3.16604 16.0365 3.20585 16.0712C3.73667 16.5259 4.31789 16.9184 4.93809 17.2408C4.96291 17.2538 4.98899 17.2649 5.01446 17.278C5.29066 17.4183 5.57385 17.5445 5.86297 17.6559C5.92825 17.6794 5.98764 17.7016 6.04963 17.7212C6.30678 17.8138 6.56787 17.895 6.83286 17.9646C6.91118 17.9855 6.98951 18.007 7.06913 18.0253C7.33022 18.086 7.59127 18.1324 7.85824 18.1702C7.93917 18.182 8.01879 18.1976 8.1004 18.2074C8.78798 18.291 9.48313 18.291 10.1707 18.2074C10.2523 18.1976 10.3319 18.182 10.4129 18.1702C10.6798 18.1324 10.9435 18.086 11.202 18.0253C11.2816 18.007 11.36 17.9855 11.4383 17.9646C11.7055 17.895 11.9665 17.8139 12.2215 17.7212C12.2868 17.699 12.3462 17.6768 12.4082 17.6559C12.6973 17.5445 12.9805 17.4184 13.2567 17.278C13.2822 17.2649 13.3082 17.2538 13.3331 17.2408C13.9533 16.9183 14.5345 16.5259 15.0653 16.0712C15.1051 16.0365 15.1423 16 15.1821 15.9648C15.3997 15.7737 15.6055 15.5734 15.7996 15.3636C15.8531 15.3062 15.9053 15.2481 15.9575 15.1894C16.1485 14.9744 16.3291 14.7508 16.4992 14.5184C16.5227 14.4864 16.5508 14.4583 16.5737 14.4257C16.5766 14.42 16.5793 14.4141 16.5815 14.4081C18.8327 11.2532 18.8327 7.01698 16.5815 3.86201ZM15.8368 5.09693C16.461 6.12495 16.8379 7.28388 16.9379 8.48243H13.0283C12.9804 7.70471 12.858 6.93341 12.6628 6.1791C13.7671 5.97228 14.8361 5.60782 15.8368 5.09693ZM10.7993 1.48296C10.8359 1.49145 10.8711 1.50319 10.9077 1.51168C11.1413 1.56652 11.373 1.62916 11.5995 1.70748C11.6341 1.71923 11.6681 1.73295 11.702 1.74535C11.9265 1.82367 12.1478 1.91048 12.3645 2.00643C12.4024 2.02406 12.4396 2.04364 12.4774 2.06127C12.685 2.16006 12.8878 2.26687 13.0857 2.38175L13.2163 2.46073C13.4042 2.57561 13.587 2.69853 13.7645 2.82951C13.8102 2.86278 13.8559 2.89479 13.9009 2.93131C14.075 3.06184 14.2417 3.20173 14.4009 3.351C14.4427 3.38886 14.4858 3.42607 14.5269 3.46523C14.694 3.62383 14.8532 3.79156 15.0072 3.96519C15.0268 3.98802 15.0477 4.0089 15.0673 4.03047C14.1835 4.45164 13.2473 4.75239 12.2836 4.92464C11.8371 3.69733 11.2474 2.527 10.5266 1.43798C10.6172 1.45427 10.7099 1.46341 10.7993 1.48296ZM6.55162 8.48239C6.60309 7.77619 6.72333 7.07667 6.91061 6.3938C7.65012 6.48164 8.39419 6.5252 9.1389 6.52432C9.88431 6.5241 10.6291 6.47943 11.3691 6.39051C11.5561 7.07449 11.6757 7.77512 11.7261 8.48239H6.55162ZM11.7261 9.78779C11.6747 10.494 11.5544 11.1935 11.3672 11.8764C10.6276 11.7885 9.88358 11.745 9.13886 11.7459C8.3935 11.745 7.64878 11.7886 6.90862 11.8764C6.72188 11.1935 6.60233 10.494 6.55158 9.78779H11.7261ZM9.13886 1.7284C9.88163 2.78113 10.4925 3.92098 10.9579 5.1224C10.3537 5.18657 9.74652 5.21881 9.13886 5.219C8.5319 5.21827 7.92536 5.18584 7.32177 5.12175C7.78772 3.92113 8.3979 2.78167 9.13886 1.7284ZM3.27121 3.9645C3.4246 3.79087 3.5845 3.62314 3.75158 3.46454C3.7927 3.42538 3.8358 3.38817 3.87756 3.35031C4.03856 3.20368 4.20523 3.06379 4.37752 2.93062C4.42257 2.89601 4.46823 2.86534 4.51393 2.82882C4.69146 2.6983 4.87422 2.57534 5.06219 2.46004L5.19271 2.38107C5.3907 2.26534 5.59347 2.15849 5.80101 2.06059C5.83888 2.04296 5.87609 2.02338 5.91395 2.00575C6.13063 1.90784 6.35191 1.82103 6.57644 1.74466C6.61036 1.73227 6.64172 1.71854 6.67889 1.7068C6.90537 1.63107 7.13579 1.56843 7.37075 1.51099C7.40732 1.5025 7.44254 1.49076 7.47975 1.48292C7.56916 1.46334 7.66186 1.4542 7.75258 1.43787C7.03146 2.52708 6.44152 3.69764 5.99487 4.92517C5.03117 4.75293 4.0949 4.45218 3.21117 4.031C3.23075 4.00821 3.25163 3.98733 3.27121 3.9645ZM2.44098 5.09693C3.44147 5.60778 4.51018 5.97224 5.61435 6.1791C5.41934 6.93345 5.29716 7.70475 5.24951 8.48243H1.33991C1.43988 7.28388 1.81681 6.12495 2.44098 5.09693ZM2.44098 13.1733C1.81677 12.1453 1.43984 10.9863 1.33991 9.78779H5.24951C5.29739 10.5655 5.41976 11.3368 5.615 12.0911C4.51064 12.2979 3.4417 12.6624 2.44098 13.1733ZM7.47845 16.7872C7.44189 16.7787 7.40667 16.767 7.3701 16.7585C7.13644 16.7037 6.90472 16.641 6.67824 16.5627C6.64363 16.551 6.60971 16.5372 6.57575 16.5248C6.35122 16.4465 6.12998 16.3597 5.91326 16.2637C5.8754 16.2461 5.83819 16.2265 5.80033 16.2089C5.59278 16.1101 5.39001 16.0033 5.19202 15.8884L5.0615 15.8095C4.87353 15.6946 4.69077 15.5717 4.51324 15.4407C4.46754 15.4074 4.42188 15.3754 4.37683 15.3389C4.20278 15.2083 4.03612 15.0684 3.87687 14.9192C3.83511 14.8813 3.79201 14.8441 3.7509 14.805C3.58381 14.6464 3.42456 14.4786 3.27052 14.305C3.25094 14.2822 3.23006 14.2613 3.21048 14.2397C4.09425 13.8185 5.03048 13.5178 5.99418 13.3455C6.44064 14.5729 7.03039 15.7432 7.7512 16.8322C7.66053 16.8159 7.56786 16.8068 7.47845 16.7872ZM9.13886 16.5418C8.3961 15.4891 7.7852 14.3492 7.31981 13.1478C8.52858 13.0177 9.74782 13.0177 10.9566 13.1478L10.9559 13.1485C10.49 14.3491 9.87987 15.4885 9.13886 16.5418ZM15.0066 14.3057C14.8532 14.4793 14.6933 14.647 14.5262 14.8056C14.4851 14.8448 14.442 14.882 14.4002 14.9199C14.2392 15.067 14.0725 15.2069 13.9003 15.3396C13.8552 15.3741 13.8095 15.4081 13.7638 15.4414C13.5863 15.5719 13.4035 15.6948 13.2156 15.8101L13.0851 15.8891C12.8875 16.0044 12.6847 16.1112 12.4768 16.2096C12.4389 16.2272 12.4017 16.2468 12.3638 16.2644C12.1471 16.3623 11.9259 16.4492 11.7013 16.5255C11.6674 16.5379 11.636 16.5516 11.5989 16.5634C11.3724 16.6391 11.142 16.7017 10.907 16.7592C10.8705 16.7677 10.8352 16.7794 10.798 16.7873C10.7086 16.8068 10.6159 16.816 10.5252 16.8323C11.246 15.7433 11.8358 14.573 12.2822 13.3457C13.2459 13.5179 14.1822 13.8187 15.0659 14.2398C15.047 14.262 15.0261 14.2829 15.0066 14.3057ZM15.8368 13.1733C14.8363 12.6624 13.7676 12.298 12.6634 12.0911C12.8584 11.3368 12.9806 10.5655 13.0283 9.78779H16.9379C16.8379 10.9863 16.461 12.1452 15.8368 13.1733Z" fill="white"/>
</g>
<defs>
<clipPath id="clip0_237:1762">
<rect width="18.2701" height="18.2701" fill="white"/>
</clipPath>
</defs>
</svg>
