<svg width="19" height="19" viewBox="0 0 19 19" fill="none" xmlns="http://www.w3.org/2000/svg">
<path d="M9.5 0.633301L9.91217 0.152438C9.67499 -0.0508562 9.32501 -0.0508562 9.08783 0.152438L9.5 0.633301ZM0.633331 8.2333L0.221163 7.75244L-2.02656e-06 7.94201V8.2333H0.633331ZM6.96666 18.3666V19C7.31644 19 7.6 18.7164 7.6 18.3666H6.96666ZM12.0333 18.3666H11.4C11.4 18.7164 11.6836 19 12.0333 19V18.3666ZM18.3667 8.2333H19V7.94201L18.7788 7.75244L18.3667 8.2333ZM1.9 19H6.96666V17.7333H1.9V19ZM18.7788 7.75244L9.91217 0.152438L9.08783 1.11416L17.9545 8.71416L18.7788 7.75244ZM9.08783 0.152438L0.221163 7.75244L1.0455 8.71416L9.91217 1.11416L9.08783 0.152438ZM7.6 18.3666V14.5666H6.33333V18.3666H7.6ZM11.4 14.5666V18.3666H12.6667V14.5666H11.4ZM12.0333 19H17.1V17.7333H12.0333V19ZM19 17.1V8.2333H17.7333V17.1H19ZM-2.02656e-06 8.2333V17.1H1.26666V8.2333H-2.02656e-06ZM9.5 12.6666C10.5493 12.6666 11.4 13.5173 11.4 14.5666H12.6667C12.6667 12.8177 11.2489 11.4 9.5 11.4V12.6666ZM9.5 11.4C7.7511 11.4 6.33333 12.8177 6.33333 14.5666H7.6C7.6 13.5173 8.45066 12.6666 9.5 12.6666V11.4ZM17.1 19C18.1493 19 19 18.1493 19 17.1H17.7333C17.7333 17.4497 17.4498 17.7333 17.1 17.7333V19ZM1.9 17.7333C1.55022 17.7333 1.26666 17.4497 1.26666 17.1H-2.02656e-06C-2.02656e-06 18.1493 0.850657 19 1.9 19V17.7333Z" fill="#ADADAF"/>
</svg>
