<svg width="55" height="55" viewBox="0 0 55 55" fill="none" xmlns="http://www.w3.org/2000/svg">
<g filter="url(#filter0_d_218:1124)">
<path d="M21.1667 27.7053L21.9069 27.033L21.8942 27.019L21.8809 27.0054L21.1667 27.7053ZM22.4333 29.1V30.1H23.4333V29.1H22.4333ZM26.8667 30.3444L26.9018 29.345L26.7963 31.3419L26.8667 30.3444ZM27.5 21.5H26.5C26.5 21.7652 26.6054 22.0195 26.7929 22.2071L27.5 21.5ZM35.3667 21.5C35.3667 25.8446 31.8446 29.3666 27.5 29.3666V31.3666C32.9492 31.3666 37.3667 26.9492 37.3667 21.5H35.3667ZM27.5 13.6333C31.8446 13.6333 35.3667 17.1553 35.3667 21.5H37.3667C37.3667 16.0508 32.9492 11.6333 27.5 11.6333V13.6333ZM27.5 11.6333C22.0508 11.6333 17.6333 16.0508 17.6333 21.5H19.6333C19.6333 17.1553 23.1554 13.6333 27.5 13.6333V11.6333ZM21.8809 27.0054C20.4895 25.5856 19.6333 23.6438 19.6333 21.5H17.6333C17.6333 24.188 18.7096 26.6267 20.4524 28.4052L21.8809 27.0054ZM20.4264 28.3777L21.6931 29.7723L23.1736 28.4276L21.9069 27.033L20.4264 28.3777ZM27.5 29.3666C27.3106 29.3666 27.1228 29.36 26.9371 29.3468L26.7963 31.3419C27.0289 31.3583 27.2635 31.3666 27.5 31.3666V29.3666ZM27.5351 29.3673L26.9018 29.345L26.8315 31.3437L27.4649 31.366L27.5351 29.3673ZM26.5 15.8V21.5H28.5V15.8H26.5ZM26.7929 22.2071L30.5929 26.0071L32.0071 24.5929L28.2071 20.7929L26.7929 22.2071ZM18 30.1H22.4333V28.1H18V30.1ZM23.4333 29.1V24.6666H21.4333V29.1H23.4333Z" fill="white"/>
</g>
<defs>
<filter id="filter0_d_218:1124" x="0.633301" y="0.633301" width="53.7334" height="53.7334" filterUnits="userSpaceOnUse" color-interpolation-filters="sRGB">
<feFlood flood-opacity="0" result="BackgroundImageFix"/>
<feColorMatrix in="SourceAlpha" type="matrix" values="0 0 0 0 0 0 0 0 0 0 0 0 0 0 0 0 0 0 127 0" result="hardAlpha"/>
<feOffset dy="6"/>
<feGaussianBlur stdDeviation="8.5"/>
<feColorMatrix type="matrix" values="0 0 0 0 0.841667 0 0 0 0 0.219258 0 0 0 0 0 0 0 0 0.3 0"/>
<feBlend mode="normal" in2="BackgroundImageFix" result="effect1_dropShadow_218:1124"/>
<feBlend mode="normal" in="SourceGraphic" in2="effect1_dropShadow_218:1124" result="shape"/>
</filter>
</defs>
</svg>
