<svg width="53" height="51" viewBox="0 0 53 51" fill="none" xmlns="http://www.w3.org/2000/svg">
<g filter="url(#filter0_d_218:890)">
<path d="M22.1117 11.2666C19.2886 11.2666 17 13.5552 17 16.3783C17 17.734 17.5385 19.0342 18.4972 19.9928L26.0522 27.5478C26.2995 27.7951 26.7005 27.7951 26.9478 27.5478L34.5028 19.9928C35.4615 19.0342 36 17.734 36 16.3783C36 13.5552 33.7114 11.2666 30.8883 11.2666C29.5326 11.2666 28.2324 11.8052 27.2738 12.7638L26.5 13.5376L25.7262 12.7638C24.7676 11.8052 23.4674 11.2666 22.1117 11.2666Z" fill="url(#paint0_linear_218:890)"/>
</g>
<defs>
<filter id="filter0_d_218:890" x="0" y="-1" width="53" height="53" filterUnits="userSpaceOnUse" color-interpolation-filters="sRGB">
<feFlood flood-opacity="0" result="BackgroundImageFix"/>
<feColorMatrix in="SourceAlpha" type="matrix" values="0 0 0 0 0 0 0 0 0 0 0 0 0 0 0 0 0 0 127 0" result="hardAlpha"/>
<feOffset dy="6"/>
<feGaussianBlur stdDeviation="8.5"/>
<feColorMatrix type="matrix" values="0 0 0 0 0.841667 0 0 0 0 0.219258 0 0 0 0 0 0 0 0 0.3 0"/>
<feBlend mode="normal" in2="BackgroundImageFix" result="effect1_dropShadow_218:890"/>
<feBlend mode="normal" in="SourceGraphic" in2="effect1_dropShadow_218:890" result="shape"/>
</filter>
<linearGradient id="paint0_linear_218:890" x1="36" y1="11.2666" x2="32.4291" y2="30.5852" gradientUnits="userSpaceOnUse">
<stop stop-color="#BC6D55"/>
<stop offset="1" stop-color="#854836"/>
</linearGradient>
</defs>
</svg>
