<svg width="375" height="291" viewBox="0 0 375 291" fill="none" xmlns="http://www.w3.org/2000/svg">
<g filter="url(#filter0_b_8:191)">
<rect width="375" height="291" fill="#E7EDF6" fill-opacity="0.9"/>
</g>
<rect x="121" y="277" width="134" height="5" rx="2.5" fill="black"/>
<path fill-rule="evenodd" clip-rule="evenodd" d="M330.833 251.333C331.294 251.333 331.667 251.706 331.667 252.167C331.667 252.194 331.665 252.222 331.663 252.249V254.543H331.658V254.55C331.658 254.566 331.659 254.581 331.661 254.597C331.662 254.611 331.663 254.626 331.663 254.64V254.953H331.678C331.926 257.917 334.351 260.227 337.324 260.33H337.66C340.634 260.229 343.06 257.918 343.307 254.953H343.327V252.177L343.333 252.177L343.333 252.167C343.333 251.706 343.706 251.333 344.167 251.333C344.627 251.333 345 251.706 345 252.167C345 252.191 344.999 252.214 344.997 252.238V254.283H344.987H344.987C344.989 258.112 342.128 261.337 338.327 261.79V264.323H341.467V264.334C341.478 264.334 341.489 264.333 341.5 264.333C341.96 264.333 342.333 264.706 342.333 265.167C342.333 265.627 341.96 266 341.5 266C341.489 266 341.478 266 341.467 265.999V266H333.53V265.999C333.52 266 333.51 266 333.5 266C333.04 266 332.667 265.627 332.667 265.167C332.667 264.706 333.04 264.333 333.5 264.333C333.51 264.333 333.52 264.333 333.53 264.334V264.323H336.677V261.79C332.867 261.347 329.995 258.118 330 254.283C330 254.263 330.002 254.244 330.003 254.226C330.005 254.21 330.006 254.195 330.006 254.18V252.27C330.002 252.236 330 252.202 330 252.167C330 251.706 330.373 251.333 330.833 251.333ZM341.993 252.88C341.993 253.383 341.993 253.913 341.967 254.417C341.946 254.871 341.877 255.321 341.76 255.76C341.499 256.682 340.943 257.492 340.177 258.067C338.605 259.307 336.388 259.307 334.817 258.067C334.048 257.494 333.492 256.683 333.233 255.76C333.115 255.321 333.046 254.871 333.026 254.417C332.997 253.913 333 253.383 333 252.88V248.667C333 248.167 333.003 245.957 333 245.583C333.013 245.127 333.092 244.674 333.233 244.24C333.767 242.326 335.51 241.003 337.497 241.003C339.484 241.003 341.227 242.326 341.761 244.24C341.886 244.678 341.964 245.128 341.994 245.583C342.024 246.087 341.994 248.167 341.994 248.667V252.88H341.993ZM340.327 253.667C340.327 253.987 340.32 254.093 340.3 254.413C340.289 254.704 340.245 254.992 340.17 255.273C340.01 255.863 339.663 256.385 339.18 256.76C338.191 257.529 336.806 257.529 335.817 256.76C335.332 256.386 334.983 255.864 334.823 255.273C334.75 254.992 334.706 254.704 334.693 254.413C334.677 254.093 334.673 253.987 334.673 253.667C334.673 249.233 334.653 245.947 334.68 245.593C334.699 245.303 334.747 245.015 334.823 244.733C334.983 244.142 335.332 243.62 335.817 243.247C336.806 242.478 338.191 242.478 339.18 243.247C339.663 243.621 340.01 244.143 340.17 244.733C340.255 245.013 340.308 245.302 340.33 245.593C340.353 245.973 340.327 249.22 340.327 253.667Z" fill="#50555C"/>
<path fill-rule="evenodd" clip-rule="evenodd" d="M330.833 251.333C331.294 251.333 331.667 251.706 331.667 252.167C331.667 252.194 331.665 252.222 331.663 252.249V254.543H331.658V254.55C331.658 254.566 331.659 254.581 331.661 254.597C331.662 254.611 331.663 254.626 331.663 254.64V254.953H331.678C331.926 257.917 334.351 260.227 337.324 260.33H337.66C340.634 260.229 343.06 257.918 343.307 254.953H343.327V252.177L343.333 252.177L343.333 252.167C343.333 251.706 343.706 251.333 344.167 251.333C344.627 251.333 345 251.706 345 252.167C345 252.191 344.999 252.214 344.997 252.238V254.283H344.987H344.987C344.989 258.112 342.128 261.337 338.327 261.79V264.323H341.467V264.334C341.478 264.334 341.489 264.333 341.5 264.333C341.96 264.333 342.333 264.706 342.333 265.167C342.333 265.627 341.96 266 341.5 266C341.489 266 341.478 266 341.467 265.999V266H333.53V265.999C333.52 266 333.51 266 333.5 266C333.04 266 332.667 265.627 332.667 265.167C332.667 264.706 333.04 264.333 333.5 264.333C333.51 264.333 333.52 264.333 333.53 264.334V264.323H336.677V261.79C332.867 261.347 329.995 258.118 330 254.283C330 254.263 330.002 254.244 330.003 254.226C330.005 254.21 330.006 254.195 330.006 254.18V252.27C330.002 252.236 330 252.202 330 252.167C330 251.706 330.373 251.333 330.833 251.333ZM341.993 252.88C341.993 253.383 341.993 253.913 341.967 254.417C341.946 254.871 341.877 255.321 341.76 255.76C341.499 256.682 340.943 257.492 340.177 258.067C338.605 259.307 336.388 259.307 334.817 258.067C334.048 257.494 333.492 256.683 333.233 255.76C333.115 255.321 333.046 254.871 333.026 254.417C332.997 253.913 333 253.383 333 252.88V248.667C333 248.167 333.003 245.957 333 245.583C333.013 245.127 333.092 244.674 333.233 244.24C333.767 242.326 335.51 241.003 337.497 241.003C339.484 241.003 341.227 242.326 341.761 244.24C341.886 244.678 341.964 245.128 341.994 245.583C342.024 246.087 341.994 248.167 341.994 248.667V252.88H341.993ZM340.327 253.667C340.327 253.987 340.32 254.093 340.3 254.413C340.289 254.704 340.245 254.992 340.17 255.273C340.01 255.863 339.663 256.385 339.18 256.76C338.191 257.529 336.806 257.529 335.817 256.76C335.332 256.386 334.983 255.864 334.823 255.273C334.75 254.992 334.706 254.704 334.693 254.413C334.677 254.093 334.673 253.987 334.673 253.667C334.673 249.233 334.653 245.947 334.68 245.593C334.699 245.303 334.747 245.015 334.823 244.733C334.983 244.142 335.332 243.62 335.817 243.247C336.806 242.478 338.191 242.478 339.18 243.247C339.663 243.621 340.01 244.143 340.17 244.733C340.255 245.013 340.308 245.302 340.33 245.593C340.353 245.973 340.327 249.22 340.327 253.667Z" fill="#50555C"/>
<path fill-rule="evenodd" clip-rule="evenodd" d="M305.487 193.483L305.652 193.646L305.729 193.719L307.967 195.956C308.064 196.056 308.166 196.156 308.312 196.299C308.389 196.378 308.474 196.462 308.603 196.585L308.644 196.628C308.698 196.685 308.711 196.699 308.736 196.722C309.032 197.018 309.389 197.277 309.779 197.477C310.17 197.675 310.587 197.812 311.018 197.884C311.414 197.95 311.814 197.986 312.214 197.991C312.305 197.993 312.35 197.995 312.407 197.996C312.526 197.999 312.626 198 312.724 198H318.614H318.615H319.208C319.356 198 319.473 197.998 319.728 197.991C320.118 197.986 320.519 197.95 320.915 197.884C321.346 197.813 321.763 197.675 322.151 197.477C322.542 197.278 322.9 197.019 323.211 196.708C323.519 196.397 323.777 196.042 323.978 195.655C324.176 195.259 324.313 194.844 324.387 194.416C324.452 194.016 324.487 193.617 324.492 193.218C324.497 193.038 324.5 192.869 324.5 192.706V185.294L324.498 185.161C324.496 184.968 324.495 184.882 324.491 184.77C324.487 184.383 324.452 183.984 324.388 183.59C324.313 183.156 324.176 182.741 323.982 182.353C323.779 181.958 323.52 181.602 323.21 181.292C322.9 180.981 322.542 180.722 322.15 180.523C321.763 180.325 321.346 180.187 320.915 180.116C320.52 180.047 320.117 180.012 319.713 180.009C319.473 180.002 319.356 180 319.208 180H312.722C312.624 180 312.524 180.001 312.405 180.004C312.349 180.005 312.303 180.007 312.202 180.009C311.813 180.012 311.411 180.048 311.013 180.116C310.586 180.188 310.168 180.325 309.779 180.523C309.387 180.723 309.03 180.982 308.72 181.292C308.709 181.301 308.691 181.321 308.603 181.414C308.493 181.518 308.394 181.615 308.298 181.713C308.151 181.857 308.059 181.948 307.958 182.051L305.659 184.347C305.63 184.375 305.601 184.403 305.567 184.437L305.482 184.521C305.391 184.609 305.334 184.666 305.27 184.733L303.217 186.784L303.195 186.806L303.166 186.834L303.114 186.887C303.065 186.937 303.044 186.958 303.021 186.981C302.937 187.065 302.894 187.109 302.845 187.163C302.674 187.33 302.513 187.507 302.364 187.694C302.22 187.847 302.103 188.024 302.019 188.217L301.996 188.28C301.845 188.748 301.845 189.252 301.996 189.72L302.021 189.787C302.106 189.979 302.222 190.156 302.364 190.311C302.52 190.5 302.685 190.681 302.859 190.853L302.934 190.929C302.977 190.973 302.994 190.991 303.021 191.017C303.048 191.044 303.068 191.064 303.116 191.113C303.167 191.164 303.19 191.188 303.22 191.217L305.283 193.283L305.487 193.483ZM318.615 197.308V198L318.614 197.308V196.615H312.724C312.638 196.615 312.548 196.614 312.439 196.612C312.385 196.61 312.342 196.609 312.242 196.606C311.901 196.602 311.572 196.573 311.246 196.519C310.954 196.47 310.672 196.377 310.408 196.243C310.147 196.11 309.908 195.936 309.7 195.728C309.691 195.719 309.674 195.701 309.651 195.677C309.583 195.605 309.577 195.599 309.548 195.572C309.442 195.471 309.366 195.397 309.291 195.319C309.14 195.173 309.046 195.079 308.952 194.983L306.661 192.693C306.64 192.67 306.617 192.648 306.592 192.629L306.458 192.495L306.256 192.299L304.198 190.237C304.171 190.21 304.151 190.19 304.102 190.141C304.052 190.09 304.028 190.066 303.998 190.036C303.977 190.015 303.961 189.999 303.921 189.959L303.882 189.918L303.84 189.876C303.689 189.726 303.551 189.574 303.387 189.377C303.353 189.341 303.325 189.301 303.302 189.258C303.255 189.089 303.255 188.91 303.303 188.74C303.322 188.703 303.348 188.668 303.378 188.637L303.428 188.58C303.551 188.425 303.684 188.278 303.861 188.104C303.894 188.067 303.924 188.036 303.998 187.962C304.025 187.935 304.05 187.91 304.1 187.859L304.147 187.812L304.17 187.789L304.191 187.769L306.26 185.7C306.321 185.637 306.368 185.59 306.485 185.476L306.539 185.422C306.556 185.405 306.571 185.391 306.609 185.359L308.944 183.023C309.041 182.924 309.126 182.84 309.277 182.692C309.37 182.597 309.456 182.513 309.556 182.419C309.581 182.395 309.611 182.364 309.684 182.285C309.906 182.064 310.145 181.89 310.407 181.757C310.67 181.623 310.953 181.53 311.245 181.481C311.571 181.425 311.898 181.396 312.225 181.394L312.251 181.393C312.347 181.391 312.388 181.39 312.438 181.388C312.546 181.386 312.636 181.385 312.722 181.385H319.208C319.339 181.385 319.447 181.387 319.689 181.394C320.032 181.396 320.36 181.425 320.684 181.481C320.978 181.53 321.26 181.623 321.522 181.757C321.785 181.89 322.024 182.063 322.231 182.271C322.439 182.479 322.613 182.718 322.747 182.979C322.877 183.24 322.971 183.525 323.022 183.819C323.074 184.139 323.103 184.469 323.107 184.8C323.11 184.912 323.112 184.993 323.114 185.177L323.115 185.303L323.115 185.59V192.706C323.115 192.854 323.113 193.01 323.107 193.189C323.103 193.531 323.074 193.861 323.021 194.187C322.971 194.475 322.877 194.76 322.744 195.027C322.612 195.281 322.437 195.521 322.229 195.731C322.024 195.937 321.785 196.11 321.524 196.243C321.26 196.377 320.978 196.47 320.687 196.519C320.361 196.573 320.031 196.602 319.7 196.606C319.447 196.613 319.339 196.615 319.208 196.615H318.615V197.308Z" fill="#50555C"/>
<g filter="url(#filter1_d_8:191)">
<rect x="129" y="167" width="117" height="46" rx="5" fill="white"/>
</g>
<path d="M187.452 182.768C185.613 182.768 184.181 183.5 183.155 184.965C182.325 186.153 181.91 187.634 181.91 189.408C181.91 192.126 182.699 194.079 184.278 195.268C185.157 195.919 186.174 196.244 187.33 196.244C189.153 196.244 190.569 195.495 191.578 193.998C192.392 192.794 192.799 191.296 192.799 189.506C192.799 186.658 191.961 184.68 190.284 183.573C189.47 183.036 188.526 182.768 187.452 182.768ZM187.403 195.609C186.02 195.609 185.108 194.771 184.669 193.095C184.441 192.167 184.327 190.971 184.327 189.506C184.327 186.088 185.011 184.11 186.378 183.573C186.671 183.459 187.004 183.402 187.379 183.402C188.681 183.402 189.544 184.135 189.967 185.6C190.243 186.527 190.382 187.797 190.382 189.408C190.382 192.891 189.714 194.901 188.38 195.438C188.087 195.552 187.761 195.609 187.403 195.609Z" fill="#030303"/>
<g filter="url(#filter2_d_8:191)">
<rect x="252" y="113" width="117" height="47" rx="5" fill="white"/>
</g>
<path d="M298.995 149.949L299.952 144.891H301.412L299.835 152H298.36L297.203 147.244L296.046 152H294.571L292.994 144.891H294.454L295.416 149.939L296.588 144.891H297.828L298.995 149.949ZM306.752 147.342L308.085 144.891H309.77L307.699 148.416L309.823 152H308.119L306.752 149.51L305.385 152H303.681L305.805 148.416L303.734 144.891H305.419L306.752 147.342ZM315.017 148.094L316.496 144.891H318.098L315.764 149.422V152H314.274V149.422L311.94 144.891H313.547L315.017 148.094ZM322.3 150.823H325.884V152H320.469V151.141L323.984 146.077H320.474V144.891H325.806V145.73L322.3 150.823Z" fill="#030303"/>
<path d="M315.481 129.445C315.481 126.499 314.684 124.424 313.089 123.22C312.242 122.585 311.241 122.268 310.086 122.268C308.23 122.268 306.839 122.886 305.911 124.123C305.358 124.904 305.081 125.799 305.081 126.809C305.081 128.518 305.765 129.763 307.132 130.544C307.897 130.967 308.767 131.179 309.744 131.179C311.03 131.162 312.137 130.78 313.064 130.031C312.983 133.856 312.169 136.062 310.623 136.647C310.314 136.761 309.98 136.818 309.622 136.818C308.694 136.818 308.133 136.444 307.937 135.695C307.905 135.565 307.864 135.345 307.815 135.036C307.734 134.369 307.563 133.946 307.303 133.767C307.107 133.636 306.855 133.571 306.546 133.571C305.895 133.571 305.496 133.864 305.35 134.45C305.317 134.564 305.301 134.686 305.301 134.816C305.301 135.728 305.83 136.436 306.888 136.94C307.604 137.282 308.418 137.453 309.329 137.453C311.884 137.453 313.667 136.273 314.676 133.913C315.213 132.66 315.481 131.171 315.481 129.445ZM307.376 126.467C307.408 124.107 308.32 122.919 310.11 122.902C311.559 122.902 312.47 123.684 312.845 125.246C312.959 125.702 313.016 126.198 313.016 126.735C313.016 128.786 312.299 129.982 310.867 130.324C310.607 130.389 310.338 130.422 310.061 130.422C308.287 130.389 307.392 129.071 307.376 126.467Z" fill="#030303"/>
<g filter="url(#filter3_d_8:191)">
<rect x="129" y="113" width="117" height="47" rx="5" fill="white"/>
</g>
<path d="M180.828 146.077H178.65V152H177.186V146.077H175.037V144.891H180.828V146.077ZM189.049 144.891V149.573C189.049 150.351 188.805 150.966 188.316 151.419C187.831 151.871 187.167 152.098 186.324 152.098C185.494 152.098 184.835 151.878 184.347 151.438C183.858 150.999 183.609 150.395 183.6 149.627V144.891H185.064V149.583C185.064 150.049 185.175 150.389 185.396 150.604C185.621 150.815 185.93 150.921 186.324 150.921C187.148 150.921 187.566 150.488 187.579 149.622V144.891H189.049ZM194.877 150.237L196.488 144.891H198.119L195.644 152H194.115L191.649 144.891H193.275L194.877 150.237Z" fill="#030303"/>
<path d="M187 135.744C188.726 135.744 190.125 135.264 191.2 134.304C191.981 133.571 192.38 132.701 192.396 131.691C192.396 130.438 191.663 129.331 190.199 128.371C189.889 128.16 189.523 127.94 189.1 127.712C190.483 126.996 191.281 125.979 191.493 124.66C191.525 124.465 191.541 124.278 191.541 124.099C191.541 122.65 190.858 121.617 189.491 120.998C188.84 120.705 188.107 120.559 187.293 120.559C185.633 120.559 184.364 121.063 183.485 122.072C182.931 122.723 182.655 123.496 182.655 124.392C182.655 125.596 183.395 126.67 184.876 127.614C185.088 127.744 185.308 127.875 185.536 128.005C183.827 128.509 182.76 129.453 182.337 130.837C182.24 131.195 182.191 131.553 182.191 131.911C182.191 133.36 182.858 134.434 184.193 135.134C185.007 135.541 185.942 135.744 187 135.744ZM184.73 123.488C184.73 122.414 185.283 121.714 186.39 121.389C186.748 121.291 187.131 121.242 187.537 121.242C188.661 121.242 189.523 121.633 190.125 122.414C190.516 122.902 190.711 123.472 190.711 124.123C190.711 125.214 190.239 126.117 189.295 126.833C189.019 127.028 188.726 127.199 188.416 127.346C186.952 126.548 185.983 125.897 185.511 125.393C184.99 124.807 184.73 124.172 184.73 123.488ZM183.021 131.862C183.021 130.739 183.534 129.836 184.559 129.152C185.08 128.827 185.674 128.591 186.341 128.444C187.871 129.258 188.864 129.877 189.32 130.3C190.003 130.918 190.345 131.602 190.345 132.351C190.345 133.604 189.686 134.434 188.368 134.841C187.896 134.987 187.375 135.061 186.805 135.061C185.503 135.061 184.486 134.646 183.753 133.815C183.265 133.278 183.021 132.627 183.021 131.862Z" fill="#030303"/>
<g filter="url(#filter4_d_8:191)">
<rect x="6" y="113" width="117" height="47" rx="5" fill="white"/>
</g>
<path d="M49.6504 149.495V152H48.1855V144.891H50.959C51.4928 144.891 51.9616 144.988 52.3652 145.184C52.7721 145.379 53.0846 145.657 53.3027 146.019C53.5208 146.377 53.6299 146.785 53.6299 147.244C53.6299 147.941 53.3906 148.491 52.9121 148.895C52.4368 149.295 51.7777 149.495 50.9346 149.495H49.6504ZM49.6504 148.309H50.959C51.3464 148.309 51.641 148.217 51.8428 148.035C52.0479 147.853 52.1504 147.592 52.1504 147.254C52.1504 146.906 52.0479 146.624 51.8428 146.409C51.6377 146.194 51.3545 146.084 50.9932 146.077H49.6504V148.309ZM62.4707 148.606C62.4707 149.271 62.3633 149.848 62.1484 150.34C61.9336 150.828 61.6357 151.22 61.2549 151.517L62.4365 152.444L61.5039 153.27L59.9902 152.054C59.8177 152.083 59.6387 152.098 59.4531 152.098C58.8639 152.098 58.3382 151.956 57.876 151.673C57.4137 151.39 57.0557 150.986 56.8018 150.462C56.5479 149.935 56.4193 149.329 56.416 148.646V148.294C56.416 147.594 56.5413 146.979 56.792 146.448C57.0459 145.914 57.4023 145.506 57.8613 145.223C58.3236 144.936 58.8509 144.793 59.4434 144.793C60.0358 144.793 60.5615 144.936 61.0205 145.223C61.4827 145.506 61.8392 145.914 62.0898 146.448C62.3438 146.979 62.4707 147.592 62.4707 148.289V148.606ZM60.9863 148.284C60.9863 147.539 60.8529 146.972 60.5859 146.585C60.319 146.198 59.9382 146.004 59.4434 146.004C58.9518 146.004 58.5726 146.196 58.3057 146.58C58.0387 146.961 57.9036 147.521 57.9004 148.26V148.606C57.9004 149.332 58.0339 149.896 58.3008 150.296C58.5677 150.696 58.9518 150.896 59.4531 150.896C59.9447 150.896 60.3223 150.704 60.5859 150.32C60.8496 149.933 60.9831 149.37 60.9863 148.631V148.284ZM68.1768 149.397H67.0098V152H65.5449V144.891H68.1865C69.0264 144.891 69.6742 145.078 70.1299 145.452C70.5856 145.826 70.8135 146.355 70.8135 147.039C70.8135 147.524 70.7077 147.929 70.4961 148.255C70.2878 148.577 69.9704 148.834 69.5439 149.026L71.082 151.932V152H69.5098L68.1768 149.397ZM67.0098 148.211H68.1914C68.5592 148.211 68.8441 148.118 69.0459 147.933C69.2477 147.744 69.3486 147.485 69.3486 147.156C69.3486 146.821 69.2526 146.557 69.0605 146.365C68.8717 146.173 68.5804 146.077 68.1865 146.077H67.0098V148.211ZM77.6182 150.135C77.6182 149.858 77.5205 149.646 77.3252 149.5C77.1299 149.35 76.7783 149.194 76.2705 149.031C75.7627 148.865 75.3607 148.702 75.0645 148.543C74.2572 148.107 73.8535 147.519 73.8535 146.78C73.8535 146.396 73.9609 146.054 74.1758 145.755C74.3939 145.452 74.7048 145.216 75.1084 145.047C75.5153 144.878 75.971 144.793 76.4756 144.793C76.9834 144.793 77.4359 144.886 77.833 145.071C78.2301 145.254 78.5378 145.512 78.7559 145.848C78.9772 146.183 79.0879 146.564 79.0879 146.99H77.623C77.623 146.665 77.5205 146.412 77.3154 146.233C77.1104 146.051 76.8223 145.96 76.4512 145.96C76.0931 145.96 75.8148 146.036 75.6162 146.189C75.4176 146.339 75.3184 146.538 75.3184 146.785C75.3184 147.016 75.4339 147.21 75.665 147.366C75.8994 147.522 76.2428 147.669 76.6953 147.806C77.5286 148.056 78.1357 148.367 78.5166 148.738C78.8975 149.109 79.0879 149.572 79.0879 150.125C79.0879 150.74 78.8551 151.224 78.3896 151.575C77.9242 151.924 77.2975 152.098 76.5098 152.098C75.9629 152.098 75.4648 151.998 75.0156 151.8C74.5664 151.598 74.223 151.323 73.9854 150.975C73.751 150.626 73.6338 150.223 73.6338 149.764H75.1035C75.1035 150.548 75.5723 150.94 76.5098 150.94C76.8581 150.94 77.1299 150.87 77.3252 150.73C77.5205 150.587 77.6182 150.389 77.6182 150.135Z" fill="#030303"/>
<path d="M70.0673 123.049V122.512H59.5448L59.496 126.833H60.0575L60.497 125.515C60.6923 124.88 61.0829 124.522 61.6688 124.44C61.8642 124.408 62.1083 124.392 62.4013 124.392H68.3095C65.1519 128.965 63.3453 131.61 62.8895 132.326C61.7828 134.117 61.2294 135.41 61.2294 136.208C61.2294 136.892 61.5468 137.299 62.1815 137.429C62.2955 137.445 62.4094 137.453 62.5233 137.453C63.1255 137.453 63.5487 137.201 63.7929 136.696C63.8742 136.534 64.1184 135.736 64.5253 134.304C65.5181 130.772 67.3655 127.02 70.0673 123.049Z" fill="#030303"/>
<g filter="url(#filter5_d_8:191)">
<rect x="252" y="59" width="117" height="47" rx="5" fill="white"/>
</g>
<path d="M298.687 90.8906L300.513 96.0469L302.329 90.8906H304.253V98H302.783V96.0566L302.93 92.7021L301.011 98H300.005L298.091 92.707L298.237 96.0566V98H296.772V90.8906H298.687ZM313.313 98H311.849L308.997 93.3223V98H307.532V90.8906H308.997L311.854 95.5781V90.8906H313.313V98ZM322.433 94.6064C322.433 95.3063 322.309 95.9199 322.062 96.4473C321.814 96.9746 321.459 97.3815 320.997 97.668C320.538 97.9544 320.011 98.0977 319.415 98.0977C318.826 98.0977 318.3 97.9561 317.838 97.6729C317.376 97.3896 317.018 96.986 316.764 96.4619C316.51 95.9346 316.381 95.3291 316.378 94.6455V94.2939C316.378 93.5941 316.503 92.9788 316.754 92.4482C317.008 91.9144 317.364 91.5059 317.823 91.2227C318.285 90.9362 318.813 90.793 319.405 90.793C319.998 90.793 320.523 90.9362 320.982 91.2227C321.445 91.5059 321.801 91.9144 322.052 92.4482C322.306 92.9788 322.433 93.5924 322.433 94.2891V94.6064ZM320.948 94.2842C320.948 93.5387 320.815 92.9723 320.548 92.585C320.281 92.1976 319.9 92.0039 319.405 92.0039C318.914 92.0039 318.535 92.196 318.268 92.5801C318.001 92.9609 317.866 93.5208 317.862 94.2598V94.6064C317.862 95.3324 317.996 95.8955 318.263 96.2959C318.53 96.6963 318.914 96.8965 319.415 96.8965C319.907 96.8965 320.284 96.7044 320.548 96.3203C320.812 95.9329 320.945 95.3698 320.948 94.6309V94.2842Z" fill="#030303"/>
<path d="M315.591 76.9834C315.591 75.2581 314.916 73.9805 313.565 73.1504C312.767 72.6784 311.872 72.4424 310.879 72.4424C309.675 72.4587 308.617 72.8005 307.705 73.4678C307.852 70.5869 308.357 68.7233 309.219 67.877C309.707 67.4212 310.31 67.1934 311.026 67.1934C311.97 67.1934 312.539 67.5596 312.735 68.292C312.784 68.4385 312.824 68.6663 312.857 68.9756C312.954 69.6429 313.134 70.0661 313.394 70.2451C313.589 70.359 313.833 70.416 314.126 70.416C314.81 70.416 315.217 70.0905 315.347 69.4395C315.363 69.3255 315.371 69.2197 315.371 69.1221C315.371 68.2594 314.843 67.5758 313.785 67.0713C313.052 66.7295 312.214 66.5586 311.27 66.5586C308.942 66.5586 307.258 67.6328 306.216 69.7812C305.581 71.0996 305.264 72.6702 305.264 74.4932C305.264 77.5693 306.07 79.7015 307.681 80.8896C308.479 81.4593 309.414 81.7441 310.489 81.7441C312.246 81.7441 313.606 81.1501 314.566 79.9619C315.249 79.1318 315.591 78.139 315.591 76.9834ZM307.583 77.252C307.583 75.1523 308.226 73.8503 309.512 73.3457C309.838 73.2155 310.179 73.1504 310.537 73.1504C311.937 73.1504 312.808 73.9154 313.15 75.4453C313.247 75.901 313.296 76.3975 313.296 76.9346C313.28 79.7015 312.336 81.0931 310.464 81.1094C309.081 81.1094 308.186 80.377 307.779 78.9121C307.648 78.4076 307.583 77.8542 307.583 77.252Z" fill="#030303"/>
<g filter="url(#filter6_d_8:191)">
<rect x="129" y="59" width="117" height="47" rx="5" fill="white"/>
</g>
<path d="M179.324 90.8906H180.789V95.8125C180.789 96.265 180.688 96.6654 180.486 97.0137C180.288 97.3587 180.006 97.6257 179.642 97.8145C179.277 98.0033 178.865 98.0977 178.406 98.0977C177.654 98.0977 177.068 97.9072 176.648 97.5264C176.229 97.1423 176.019 96.6003 176.019 95.9004H177.493C177.493 96.2487 177.566 96.5059 177.713 96.6719C177.859 96.8379 178.09 96.9209 178.406 96.9209C178.686 96.9209 178.909 96.8249 179.075 96.6328C179.241 96.4408 179.324 96.1673 179.324 95.8125V90.8906ZM186.271 95.1484L185.509 95.9688V98H184.044V90.8906H185.509V94.1133L186.153 93.2295L187.965 90.8906H189.767L187.242 94.0498L189.84 98H188.097L186.271 95.1484ZM193.856 96.8232H196.967V98H192.392V90.8906H193.856V96.8232Z" fill="#030303"/>
<path d="M192.445 78.6924C192.445 77.1462 191.867 75.9499 190.711 75.1035C189.881 74.485 188.872 74.1758 187.684 74.1758C186.414 74.1921 185.316 74.5094 184.388 75.1279V70.4648C185.723 70.5951 186.838 70.6602 187.733 70.6602C189.426 70.6602 190.492 70.4404 190.931 70.001C191.322 69.5778 191.517 68.7559 191.517 67.5352H190.931C190.785 68.0723 190.467 68.4059 189.979 68.5361C189.605 68.6501 189.01 68.707 188.197 68.707C187.692 68.707 186.154 68.6419 183.582 68.5117V75.3965L184.388 76.0068C185.202 75.3721 186.081 75.0547 187.025 75.0547C188.555 75.0547 189.539 75.7952 189.979 77.2764C190.109 77.7484 190.174 78.2611 190.174 78.8145C190.174 80.7025 189.564 81.9395 188.343 82.5254C187.887 82.737 187.383 82.8428 186.829 82.8428C185.967 82.8428 185.446 82.4603 185.267 81.6953C185.218 81.5163 185.177 81.2477 185.145 80.8896C185.064 80.0921 184.893 79.5876 184.632 79.376C184.421 79.2132 184.144 79.1318 183.802 79.1318C183.07 79.262 182.663 79.6852 182.581 80.4014C182.581 81.3779 183.094 82.1673 184.12 82.7695C184.917 83.2253 185.853 83.4531 186.927 83.4531C188.978 83.4531 190.508 82.7858 191.517 81.4512C192.135 80.6536 192.445 79.734 192.445 78.6924Z" fill="#030303"/>
<g filter="url(#filter7_d_8:191)">
<rect x="6" y="59" width="117" height="47" rx="5" fill="white"/>
</g>
<path d="M59.3564 97.1016C59.0928 97.4173 58.7201 97.6631 58.2383 97.8389C57.7565 98.0114 57.2227 98.0977 56.6367 98.0977C56.0215 98.0977 55.4811 97.9642 55.0156 97.6973C54.5534 97.4271 54.1953 97.0365 53.9414 96.5254C53.6908 96.0143 53.5622 95.4137 53.5557 94.7236V94.2402C53.5557 93.5306 53.6745 92.917 53.9121 92.3994C54.153 91.8786 54.498 91.4814 54.9473 91.208C55.3997 90.9313 55.9287 90.793 56.5342 90.793C57.3773 90.793 58.0365 90.9948 58.5117 91.3984C58.987 91.7988 59.2686 92.3831 59.3564 93.1514H57.9307C57.8656 92.7445 57.7207 92.4466 57.4961 92.2578C57.2747 92.069 56.9688 91.9746 56.5781 91.9746C56.0801 91.9746 55.7008 92.1618 55.4404 92.5361C55.18 92.9105 55.0482 93.4671 55.0449 94.2061V94.6602C55.0449 95.4056 55.1865 95.9688 55.4697 96.3496C55.7529 96.7305 56.168 96.9209 56.7148 96.9209C57.265 96.9209 57.6572 96.8037 57.8916 96.5693V95.3438H56.5586V94.2646H59.3564V97.1016ZM68.334 98H66.8691V94.9531H64.0127V98H62.5479V90.8906H64.0127V93.7715H66.8691V90.8906H68.334V98ZM73.1758 98H71.7109V90.8906H73.1758V98Z" fill="#030303"/>
<path d="M69.518 83.1846C69.518 82.7939 69.4122 82.5824 69.2006 82.5498C69.1192 82.5335 69.0297 82.5254 68.932 82.5254H67.2963V79.4004H69.518V78.668H67.2963V73.8096H66.7836L66.515 74.7617C66.3685 75.3151 66.1407 75.6325 65.8314 75.7139C65.7012 75.7627 65.5385 75.7871 65.3432 75.7871H65.1723V78.6436L59.5082 78.6191C64.3747 74.5827 66.9789 71.6774 67.3207 69.9033C67.3532 69.7568 67.3695 69.6185 67.3695 69.4883C67.337 68.6745 66.9219 68.2594 66.1244 68.2432C65.5385 68.2432 65.099 68.5605 64.806 69.1953C64.7084 69.3906 64.57 69.7568 64.391 70.2939C63.74 72.1494 62.9424 73.7119 61.9984 74.9814C61.0381 76.2347 59.85 77.4473 58.434 78.6191L58.5805 79.3516L65.1723 79.376V82.5254H62.5355V83.1846H69.518Z" fill="#030303"/>
<g filter="url(#filter8_d_8:191)">
<rect x="252" y="6" width="117" height="46" rx="5" fill="white"/>
</g>
<path d="M299.331 44V36.8906H301.519C302.144 36.8906 302.702 37.0322 303.193 37.3154C303.688 37.5954 304.074 37.9958 304.351 38.5166C304.627 39.0342 304.766 39.6234 304.766 40.2842V40.6113C304.766 41.2721 304.629 41.8597 304.355 42.374C304.085 42.8883 303.703 43.2871 303.208 43.5703C302.713 43.8535 302.155 43.9967 301.533 44H299.331ZM300.796 38.0771V42.8232H301.504C302.077 42.8232 302.515 42.6361 302.817 42.2617C303.12 41.8874 303.275 41.3519 303.281 40.6553V40.2793C303.281 39.5566 303.132 39.0098 302.832 38.6387C302.533 38.2643 302.095 38.0771 301.519 38.0771H300.796ZM312.112 40.9189H309.3V42.8232H312.601V44H307.835V36.8906H312.591V38.0771H309.3V39.7715H312.112V40.9189ZM319.737 41.0947H316.925V44H315.46V36.8906H320.089V38.0771H316.925V39.9131H319.737V41.0947Z" fill="#030303"/>
<path d="M314.822 15.5244V15.0117H305.594L305.545 19.1377H306.131L306.57 17.8193C306.749 17.2497 307.115 16.9242 307.669 16.8428C307.848 16.8265 308.116 16.8184 308.475 16.8184H312.332L307.962 21.8721L308.523 22.3359C309.109 22.0918 309.679 21.9697 310.232 21.9697C311.372 21.9697 312.185 22.5394 312.674 23.6787C312.902 24.2321 313.016 24.8587 313.016 25.5586C312.983 28.0651 311.795 29.3265 309.451 29.3428C308.556 29.3428 308.011 28.944 307.815 28.1465C307.783 27.9837 307.742 27.7152 307.693 27.3408C307.612 26.5433 307.433 26.0387 307.156 25.8271C306.945 25.6807 306.676 25.6074 306.35 25.6074C305.732 25.6074 305.35 25.9004 305.203 26.4863C305.17 26.6165 305.154 26.7467 305.154 26.877C305.154 28.0163 305.797 28.8708 307.083 29.4404C307.864 29.7822 308.759 29.9531 309.768 29.9531C311.787 29.9531 313.317 29.2777 314.358 27.9268C314.977 27.0967 315.286 26.1934 315.286 25.2168C315.286 23.8984 314.798 22.8568 313.821 22.0918C313.056 21.5059 312.12 21.2129 311.014 21.2129C310.509 21.2129 309.964 21.278 309.378 21.4082L314.822 15.5244Z" fill="#030303"/>
<g filter="url(#filter9_d_8:191)">
<rect x="129" y="6" width="117" height="46" rx="5" fill="white"/>
</g>
<path d="M180.319 42.5352H177.751L177.263 44H175.705L178.352 36.8906H179.709L182.37 44H180.812L180.319 42.5352ZM178.146 41.3486H179.924L179.03 38.6875L178.146 41.3486ZM185.034 44V36.8906H187.524C188.387 36.8906 189.041 37.0566 189.487 37.3887C189.933 37.7174 190.156 38.2008 190.156 38.8389C190.156 39.1872 190.067 39.4948 189.888 39.7617C189.709 40.0254 189.46 40.2191 189.141 40.3428C189.505 40.4339 189.792 40.6178 190 40.8945C190.212 41.1712 190.317 41.5098 190.317 41.9102C190.317 42.5938 190.099 43.1113 189.663 43.4629C189.227 43.8145 188.605 43.9935 187.798 44H185.034ZM186.499 40.9043V42.8232H187.754C188.099 42.8232 188.368 42.7419 188.56 42.5791C188.755 42.4131 188.853 42.1852 188.853 41.8955C188.853 41.2445 188.516 40.9141 187.842 40.9043H186.499ZM186.499 39.8691H187.583C188.322 39.8561 188.691 39.5615 188.691 38.9854C188.691 38.6631 188.597 38.432 188.408 38.292C188.223 38.1488 187.928 38.0771 187.524 38.0771H186.499V39.8691ZM199.002 41.6318C198.947 42.3968 198.663 42.999 198.152 43.4385C197.645 43.8779 196.974 44.0977 196.141 44.0977C195.229 44.0977 194.511 43.7917 193.987 43.1797C193.466 42.5645 193.206 41.7214 193.206 40.6504V40.2158C193.206 39.5322 193.326 38.93 193.567 38.4092C193.808 37.8883 194.152 37.4896 194.598 37.2129C195.047 36.9329 195.568 36.793 196.16 36.793C196.98 36.793 197.641 37.0127 198.143 37.4521C198.644 37.8916 198.934 38.5085 199.012 39.3027H197.547C197.511 38.8438 197.382 38.5117 197.161 38.3066C196.943 38.0983 196.609 37.9941 196.16 37.9941C195.672 37.9941 195.306 38.1699 195.062 38.5215C194.821 38.8698 194.697 39.4118 194.69 40.1475V40.6846C194.69 41.4528 194.806 42.0143 195.037 42.3691C195.271 42.724 195.639 42.9014 196.141 42.9014C196.593 42.9014 196.93 42.7988 197.151 42.5938C197.376 42.3854 197.505 42.0648 197.537 41.6318H199.002Z" fill="#030303"/>
<path d="M183.607 26.1445C183.607 25.64 184.193 25.0296 185.365 24.3135C185.593 24.167 185.967 23.9391 186.488 23.6299C188.294 22.5882 189.531 21.7174 190.199 21.0176C191.012 20.1549 191.419 19.2435 191.419 18.2832C191.419 16.7695 190.646 15.7279 189.1 15.1582C188.416 14.8978 187.651 14.7676 186.805 14.7676C185.275 14.7676 184.071 15.1663 183.192 15.9639C182.622 16.5173 182.337 17.1602 182.337 17.8926C182.337 18.5762 182.59 19.0075 183.094 19.1865C183.224 19.2354 183.355 19.2598 183.485 19.2598C184.152 19.2598 184.559 18.918 184.705 18.2344C184.738 18.0716 184.771 17.8193 184.803 17.4775C184.884 16.6149 185.08 16.0452 185.389 15.7686C185.666 15.5244 186.065 15.4023 186.585 15.4023C187.953 15.4023 188.766 16.0615 189.027 17.3799C189.076 17.6403 189.1 17.917 189.1 18.21C189.1 19.7562 188.425 21.0664 187.074 22.1406C186.911 22.2708 186.195 22.7591 184.925 23.6055C183.737 24.403 182.972 25.1842 182.63 25.9492C182.419 26.4212 182.313 26.9258 182.313 27.4629V28H191.737L191.786 23.8008H191.297L190.907 25.0703C190.711 25.6562 190.394 25.998 189.954 26.0957C189.759 26.1283 189.482 26.1445 189.124 26.1445H183.607Z" fill="#030303"/>
<g filter="url(#filter10_d_8:191)">
<rect x="6" y="6" width="117" height="46" rx="5" fill="white"/>
</g>
<path d="M64.6351 15.0117L59.6791 18.2588L60.1185 18.9668L63.8783 16.5986V27.1455L60.5824 27.3652V28H69.1517C69.1517 27.6419 68.9971 27.4303 68.6879 27.3652C68.6228 27.349 68.5577 27.3408 68.4926 27.3408L66.0756 27.1455V15.0117H64.6351Z" fill="#030303"/>
<defs>
<filter id="filter0_b_8:191" x="-54.3656" y="-54.3656" width="483.731" height="399.731" filterUnits="userSpaceOnUse" color-interpolation-filters="sRGB">
<feFlood flood-opacity="0" result="BackgroundImageFix"/>
<feGaussianBlur in="BackgroundImage" stdDeviation="27.1828"/>
<feComposite in2="SourceAlpha" operator="in" result="effect1_backgroundBlur_8:191"/>
<feBlend mode="normal" in="SourceGraphic" in2="effect1_backgroundBlur_8:191" result="shape"/>
</filter>
<filter id="filter1_d_8:191" x="129" y="167" width="117" height="47" filterUnits="userSpaceOnUse" color-interpolation-filters="sRGB">
<feFlood flood-opacity="0" result="BackgroundImageFix"/>
<feColorMatrix in="SourceAlpha" type="matrix" values="0 0 0 0 0 0 0 0 0 0 0 0 0 0 0 0 0 0 127 0" result="hardAlpha"/>
<feOffset dy="1"/>
<feColorMatrix type="matrix" values="0 0 0 0 0 0 0 0 0 0 0 0 0 0 0 0 0 0 0.35 0"/>
<feBlend mode="normal" in2="BackgroundImageFix" result="effect1_dropShadow_8:191"/>
<feBlend mode="normal" in="SourceGraphic" in2="effect1_dropShadow_8:191" result="shape"/>
</filter>
<filter id="filter2_d_8:191" x="252" y="113" width="117" height="48" filterUnits="userSpaceOnUse" color-interpolation-filters="sRGB">
<feFlood flood-opacity="0" result="BackgroundImageFix"/>
<feColorMatrix in="SourceAlpha" type="matrix" values="0 0 0 0 0 0 0 0 0 0 0 0 0 0 0 0 0 0 127 0" result="hardAlpha"/>
<feOffset dy="1"/>
<feColorMatrix type="matrix" values="0 0 0 0 0 0 0 0 0 0 0 0 0 0 0 0 0 0 0.35 0"/>
<feBlend mode="normal" in2="BackgroundImageFix" result="effect1_dropShadow_8:191"/>
<feBlend mode="normal" in="SourceGraphic" in2="effect1_dropShadow_8:191" result="shape"/>
</filter>
<filter id="filter3_d_8:191" x="129" y="113" width="117" height="48" filterUnits="userSpaceOnUse" color-interpolation-filters="sRGB">
<feFlood flood-opacity="0" result="BackgroundImageFix"/>
<feColorMatrix in="SourceAlpha" type="matrix" values="0 0 0 0 0 0 0 0 0 0 0 0 0 0 0 0 0 0 127 0" result="hardAlpha"/>
<feOffset dy="1"/>
<feColorMatrix type="matrix" values="0 0 0 0 0 0 0 0 0 0 0 0 0 0 0 0 0 0 0.35 0"/>
<feBlend mode="normal" in2="BackgroundImageFix" result="effect1_dropShadow_8:191"/>
<feBlend mode="normal" in="SourceGraphic" in2="effect1_dropShadow_8:191" result="shape"/>
</filter>
<filter id="filter4_d_8:191" x="6" y="113" width="117" height="48" filterUnits="userSpaceOnUse" color-interpolation-filters="sRGB">
<feFlood flood-opacity="0" result="BackgroundImageFix"/>
<feColorMatrix in="SourceAlpha" type="matrix" values="0 0 0 0 0 0 0 0 0 0 0 0 0 0 0 0 0 0 127 0" result="hardAlpha"/>
<feOffset dy="1"/>
<feColorMatrix type="matrix" values="0 0 0 0 0 0 0 0 0 0 0 0 0 0 0 0 0 0 0.35 0"/>
<feBlend mode="normal" in2="BackgroundImageFix" result="effect1_dropShadow_8:191"/>
<feBlend mode="normal" in="SourceGraphic" in2="effect1_dropShadow_8:191" result="shape"/>
</filter>
<filter id="filter5_d_8:191" x="252" y="59" width="117" height="48" filterUnits="userSpaceOnUse" color-interpolation-filters="sRGB">
<feFlood flood-opacity="0" result="BackgroundImageFix"/>
<feColorMatrix in="SourceAlpha" type="matrix" values="0 0 0 0 0 0 0 0 0 0 0 0 0 0 0 0 0 0 127 0" result="hardAlpha"/>
<feOffset dy="1"/>
<feColorMatrix type="matrix" values="0 0 0 0 0 0 0 0 0 0 0 0 0 0 0 0 0 0 0.35 0"/>
<feBlend mode="normal" in2="BackgroundImageFix" result="effect1_dropShadow_8:191"/>
<feBlend mode="normal" in="SourceGraphic" in2="effect1_dropShadow_8:191" result="shape"/>
</filter>
<filter id="filter6_d_8:191" x="129" y="59" width="117" height="48" filterUnits="userSpaceOnUse" color-interpolation-filters="sRGB">
<feFlood flood-opacity="0" result="BackgroundImageFix"/>
<feColorMatrix in="SourceAlpha" type="matrix" values="0 0 0 0 0 0 0 0 0 0 0 0 0 0 0 0 0 0 127 0" result="hardAlpha"/>
<feOffset dy="1"/>
<feColorMatrix type="matrix" values="0 0 0 0 0 0 0 0 0 0 0 0 0 0 0 0 0 0 0.35 0"/>
<feBlend mode="normal" in2="BackgroundImageFix" result="effect1_dropShadow_8:191"/>
<feBlend mode="normal" in="SourceGraphic" in2="effect1_dropShadow_8:191" result="shape"/>
</filter>
<filter id="filter7_d_8:191" x="6" y="59" width="117" height="48" filterUnits="userSpaceOnUse" color-interpolation-filters="sRGB">
<feFlood flood-opacity="0" result="BackgroundImageFix"/>
<feColorMatrix in="SourceAlpha" type="matrix" values="0 0 0 0 0 0 0 0 0 0 0 0 0 0 0 0 0 0 127 0" result="hardAlpha"/>
<feOffset dy="1"/>
<feColorMatrix type="matrix" values="0 0 0 0 0 0 0 0 0 0 0 0 0 0 0 0 0 0 0.35 0"/>
<feBlend mode="normal" in2="BackgroundImageFix" result="effect1_dropShadow_8:191"/>
<feBlend mode="normal" in="SourceGraphic" in2="effect1_dropShadow_8:191" result="shape"/>
</filter>
<filter id="filter8_d_8:191" x="252" y="6" width="117" height="47" filterUnits="userSpaceOnUse" color-interpolation-filters="sRGB">
<feFlood flood-opacity="0" result="BackgroundImageFix"/>
<feColorMatrix in="SourceAlpha" type="matrix" values="0 0 0 0 0 0 0 0 0 0 0 0 0 0 0 0 0 0 127 0" result="hardAlpha"/>
<feOffset dy="1"/>
<feColorMatrix type="matrix" values="0 0 0 0 0 0 0 0 0 0 0 0 0 0 0 0 0 0 0.35 0"/>
<feBlend mode="normal" in2="BackgroundImageFix" result="effect1_dropShadow_8:191"/>
<feBlend mode="normal" in="SourceGraphic" in2="effect1_dropShadow_8:191" result="shape"/>
</filter>
<filter id="filter9_d_8:191" x="129" y="6" width="117" height="47" filterUnits="userSpaceOnUse" color-interpolation-filters="sRGB">
<feFlood flood-opacity="0" result="BackgroundImageFix"/>
<feColorMatrix in="SourceAlpha" type="matrix" values="0 0 0 0 0 0 0 0 0 0 0 0 0 0 0 0 0 0 127 0" result="hardAlpha"/>
<feOffset dy="1"/>
<feColorMatrix type="matrix" values="0 0 0 0 0 0 0 0 0 0 0 0 0 0 0 0 0 0 0.35 0"/>
<feBlend mode="normal" in2="BackgroundImageFix" result="effect1_dropShadow_8:191"/>
<feBlend mode="normal" in="SourceGraphic" in2="effect1_dropShadow_8:191" result="shape"/>
</filter>
<filter id="filter10_d_8:191" x="6" y="6" width="117" height="47" filterUnits="userSpaceOnUse" color-interpolation-filters="sRGB">
<feFlood flood-opacity="0" result="BackgroundImageFix"/>
<feColorMatrix in="SourceAlpha" type="matrix" values="0 0 0 0 0 0 0 0 0 0 0 0 0 0 0 0 0 0 127 0" result="hardAlpha"/>
<feOffset dy="1"/>
<feColorMatrix type="matrix" values="0 0 0 0 0 0 0 0 0 0 0 0 0 0 0 0 0 0 0.35 0"/>
<feBlend mode="normal" in2="BackgroundImageFix" result="effect1_dropShadow_8:191"/>
<feBlend mode="normal" in="SourceGraphic" in2="effect1_dropShadow_8:191" result="shape"/>
</filter>
</defs>
</svg>
