<svg width="20" height="20" viewBox="0 0 20 20" fill="none" xmlns="http://www.w3.org/2000/svg">
<path d="M10.7375 2.66493C10.7165 2.65443 8.636 1.66643 6.9805 1.54043C5.2405 1.40493 3.497 2.32843 3.479 2.33843L3.2435 1.89693C3.3195 1.85643 5.1335 0.900935 7.0185 1.04143C8.768 1.17543 10.8645 2.17193 10.953 2.21393L10.7375 2.66493Z" fill="black"/>
<path d="M8.9785 3.64839L8.7595 3.19889L10.4745 2.36289L9.3665 0.840387L9.771 0.546387L11.2295 2.55039L8.9785 3.64839Z" fill="black"/>
<path d="M1.5115 4.9568L1.296 4.5058C1.3845 4.4638 3.481 3.4673 5.231 3.3333C7.11 3.1963 8.9295 4.1483 9.0055 4.1888L8.77 4.6303C8.7525 4.6208 7.0035 3.6968 5.269 3.8323C3.6135 3.9583 1.5325 4.9468 1.5115 4.9568Z" fill="black"/>
<path d="M3.271 5.94038L1.0195 4.84238L2.478 2.83838L2.8825 3.13238L1.7745 4.65488L3.4895 5.49088L3.271 5.94038Z" fill="black"/>
<path d="M12.669 19.7188C12.0325 19.7188 11.387 19.6498 10.803 19.5198C9.8065 19.2978 7.71 17.6983 7.2665 17.2388C6.8655 16.8233 5.7915 15.2283 5.634 13.9308C5.565 13.3658 5.9985 11.6823 6.529 11.0833C6.6335 10.9658 6.743 10.8868 6.855 10.8478C6.83247 10.7963 6.80964 10.745 6.7865 10.6938C6.4415 9.9428 5.9305 9.0753 5.4795 8.3093C4.716 7.0123 4.4315 6.4943 4.4795 6.1993C4.56 5.6993 4.97 5.1223 5.516 5.0213L5.6125 5.0018C5.75326 4.96787 5.89725 4.9491 6.042 4.9458C6.5185 4.9458 6.955 5.2178 7.4165 5.8013C7.816 6.3068 8.463 7.7023 9.0075 8.9648C8.9825 8.6468 8.992 8.3813 9.059 8.2263C9.329 7.5998 10.082 7.3533 10.3115 7.3388L10.368 7.3373C10.5135 7.3373 11.258 7.3738 11.603 8.0978C11.658 8.2138 11.7105 8.3388 11.759 8.4653C11.821 8.2503 11.909 8.0628 12.0345 7.9558C12.4205 7.6278 12.949 7.4578 13.3085 7.5588C13.695 7.6673 14.0205 8.0763 14.138 8.6028C14.1885 8.4888 14.2495 8.3963 14.3215 8.3423C14.671 8.0803 15.279 8.0523 15.664 8.3193C16.134 8.6453 17.215 10.5983 17.405 12.3063C17.5605 13.7103 17.736 16.2193 17.1565 17.2533C16.5545 18.3258 15.323 19.1588 14.4335 19.4783C14.0005 19.6328 13.374 19.7188 12.669 19.7188ZM7.034 11.3288C6.702 11.3618 6.0515 13.2218 6.13 13.8693C6.271 15.0333 7.2705 16.5223 7.6265 16.8913C8.05 17.3303 10.055 18.8403 10.911 19.0308C11.4605 19.1533 12.0675 19.2183 12.6685 19.2183C13.308 19.2183 13.889 19.1408 14.263 19.0058C14.9355 18.7643 16.1435 18.0328 16.719 17.0063C17.093 16.3408 17.1615 14.6468 16.907 12.3603C16.7265 10.7313 15.673 8.9333 15.3785 8.7283C15.142 8.5648 14.748 8.6448 14.6205 8.7408C14.55 8.8213 14.4455 9.2923 14.405 9.7408L14.2795 11.1243L13.915 9.7838C13.915 9.7838 13.753 9.1888 13.651 8.7173C13.564 8.3188 13.342 8.0858 13.1725 8.0388C12.986 7.9858 12.6115 8.1193 12.358 8.3353C12.22 8.4528 12.1175 9.1318 12.113 9.6668L12.094 11.7453L11.6195 9.7213C11.6175 9.7123 11.419 8.8698 11.1515 8.3113C10.9355 7.8583 10.4605 7.8353 10.368 7.8353C10.2225 7.8453 9.69 8.0243 9.518 8.4228C9.398 8.7023 9.67 10.1608 9.9905 11.3513L9.5165 11.5073C9.5 11.4638 7.7575 7.0363 7.025 6.1098C6.554 5.5138 6.239 5.4448 6.043 5.4448C5.933 5.4448 5.827 5.4668 5.7155 5.4903L5.608 5.5118C5.327 5.5638 5.0315 5.9223 4.973 6.2788C4.9775 6.4698 5.495 7.3488 5.911 8.0553C6.3675 8.8313 6.8855 9.7108 7.241 10.4843C7.3315 10.6808 7.4155 10.8853 7.493 11.0943L7.494 11.0978C8.0365 11.8453 8.3065 14.3038 8.336 14.5863L7.8395 14.6438C7.8375 14.6263 7.6085 12.8753 7.0535 11.3473C7.04743 11.3407 7.04092 11.3345 7.034 11.3288Z" fill="black"/>
</svg>
